<svg xmlns="http://www.w3.org/2000/svg" width="18" height="14">
    <path fill="#4ba9dd" fill-rule="evenodd" d="M17.534 3.781L9.321.083a.793.793 0 0 0-.647 0L.46 3.781a.776.776 0 0 0-.458.689c-.007.298.194.573.462.709l.709.341v2.74c0 .268.219.485.489.485s.489-.217.489-.485V6.016l1.174.627v3.325c0 .131.035.26.108.37.074.113 1.859 2.769 5.457 2.769 3.699 0 5.405-2.67 5.475-2.784a.676.676 0 0 0 .109-.355V6.754l3.101-1.575a.77.77 0 0 0 .422-.709.78.78 0 0 0-.463-.689zm-4.429 5.974A5.308 5.308 0 0 1 8.9 11.749c-2.426 0-3.815-1.51-4.206-2.002v-2.41L8.645 9.34a.788.788 0 0 0 .354.084.825.825 0 0 0 .363-.084l3.743-1.893v2.308zM8.997 7.778L2.585 4.529l6.412-2.887 6.413 2.887-6.413 3.249zm-6.852 1.62a.783.783 0 0 1 .229.549.785.785 0 0 1-.229.549.798.798 0 0 1-.554.227.8.8 0 0 1-.553-.227.785.785 0 0 1-.229-.549c0-.204.084-.404.229-.549a.796.796 0 0 1 .553-.227c.206 0 .407.083.554.227z"/>
</svg>
