<?xml version="1.0" standalone="no"?><!DOCTYPE svg PUBLIC "-//W3C//DTD SVG 1.1//EN" "http://www.w3.org/Graphics/SVG/1.1/DTD/svg11.dtd"><svg class="icon" height="512" viewBox="0 0 1025 1024" version="1.1" xmlns="http://www.w3.org/2000/svg"><path fill="#EEEEEE" d="M896.351477 1023.999993c3.59716 0 7.244984-0.101328 10.816812-0.303985 21.405635 0 112.677237-41.291344 116.831704-123.899363 0.48131-25.762759-3.926477-61.709027-27.789328-85.622541l-57.275907-57.301239 0-5.471736c0.025332-70.119288-10.31017-119.086262-29.055933-137.857357-18.720431-18.720431-67.307424-29.005269-136.844073-29.005269l-4.686441 0-4.610445-3.014521-125.267297-125.064641 2.989189-7.928951c45.851124-121.771466 16.18722-259.70482-75.54036-351.4324-62.646315-62.620983-145.912969-97.097988-234.474035-97.097988s-171.827721 34.477005-234.474035 97.097988c-129.295103 129.295103-129.295103 339.652968 0 468.948071 74.425747 74.400415 192.600053 104.19098 350.419115 88.257081l30.753185-48.941642c-22.469584 1.925241-50.284244 3.774485-81.265418 3.774485-119.035598 0-206.887365-27.510674-261.174082-81.822724-107.9148-107.9148-107.9148-283.542338 0-391.48247 52.285481-52.285481 121.847462-81.088093 195.791899-81.088093s143.481087 28.802612 195.766567 81.088093c58.162531 58.213195 86.762486 136.742745 79.948148 217.830837l5.902382-5.699725-10.664819 44.077876c-8.587586 35.388961-13.654009 92.158226 1.849244 107.686811l134.158869 134.133537 51.930831 0c23.482869 0 64.976869 2.381219 80.961432 18.289785 18.365782 18.34045 18.416446 70.803255 18.239121 81.138757l0 51.702842 67.839398 67.839398c28.979937 28.979937 23.710858 80.986764 0 104.697622-12.058086 12.058086-32.577097 19.556391-53.526754 19.556391-20.392351 0-38.555476-6.966331-51.145536-19.556391l-234.499368-234.448703-38.707468 38.682136 234.448703 234.448703C837.023669 1019.16156 871.475342 1023.999993 896.351477 1023.999993zM422.53964 183.100511c-20.012369-20.012369-47.472379-30.57586-79.390841-30.57586-45.876456 0-93.779481 21.608292-131.423001 59.302476-32.399772 32.399772-53.045444 72.500507-58.086534 112.981223-4.889098 39.188778 5.573065 73.944437 29.435915 97.807287 19.987037 19.987037 47.447047 30.550528 79.340177 30.550528 45.876456 0 93.779481-21.58296 131.448333-59.251812C459.879175 327.898867 472.722556 233.308758 422.53964 183.100511zM396.675553 285.7209c-5.978379 23.964179-20.747 48.637656-41.569997 69.409989-27.81466 27.865324-62.11434 44.508522-91.72758 44.508522-16.896519 0-31.285159-5.471736-41.620661-15.807238-10.335502-10.31017-15.807238-24.69881-15.807238-41.569997-0.025332-29.638572 16.592534-63.963585 44.457858-91.778244 27.865324-27.865324 62.190337-44.48319 91.828909-44.48319 16.845855 0 31.234495 5.471736 41.595329 15.781906C398.727454 236.703261 403.287235 259.400834 396.675553 285.7209z" /></svg>
