<svg xmlns="http://www.w3.org/2000/svg" width="14" height="19">
    <path fill="#4ba9dd" fill-rule="evenodd" d="M11.306 1.581C10.161.561 8.572-.001 6.833-.001c-1.741 0-3.33.562-4.474 1.582C.984 2.807.257 4.671.257 6.97c0 5.01 5.764 10.879 6.009 11.127a.798.798 0 0 0 1.132 0c.246-.248 6.011-6.117 6.011-11.127 0-2.299-.727-4.163-2.103-5.389zM6.832 16.366a30.526 30.526 0 0 1-2.238-2.796c-1.795-2.545-2.743-4.828-2.743-6.6 0-4.989 3.813-5.377 4.982-5.377 4.622 0 4.981 4.115 4.981 5.377 0 3.509-3.57 7.825-4.982 9.396zm.001-12.929c-1.749 0-3.173 1.446-3.173 3.223s1.424 3.223 3.173 3.223 3.172-1.446 3.172-3.223-1.423-3.223-3.172-3.223zm0 5.051c-.981 0-1.778-.82-1.778-1.828s.797-1.828 1.778-1.828c.98 0 1.778.82 1.778 1.828s-.798 1.828-1.778 1.828z"/>
</svg>
