<svg xmlns="http://www.w3.org/2000/svg" width="19" height="12">
    <path fill="#FFF" fill-rule="evenodd" d="M18.997 1.566c0-.03-.005-.06-.009-.089-.002-.023-.004-.047-.009-.069-.005-.024-.015-.049-.023-.074-.008-.025-.016-.051-.026-.075-.01-.021-.022-.04-.033-.06-.015-.026-.029-.053-.046-.077l-.009-.015c-.01-.014-.024-.025-.036-.039a.852.852 0 0 0-.057-.063c-.02-.019-.04-.034-.06-.05-.021-.015-.04-.031-.062-.044a.474.474 0 0 0-.07-.038.529.529 0 0 0-.144-.055.586.586 0 0 0-.16-.028c-.018 0-.033-.005-.051-.005H1.463c-.017 0-.034.005-.052.005-.028.003-.058.004-.087.009a.638.638 0 0 0-.072.019.511.511 0 0 0-.145.055.52.52 0 0 0-.069.038C1.016.924.996.94.976.955c-.02.016-.041.031-.06.05-.021.02-.038.041-.057.063-.012.014-.025.025-.036.039l-.009.015c-.017.024-.031.051-.045.077-.012.02-.024.039-.033.06-.011.024-.018.049-.026.075-.008.025-.018.049-.024.074-.005.022-.006.046-.01.069a.654.654 0 0 0-.01.105v9.167c0 .44.357.797.797.797h16.739c.44 0 .797-.357.797-.797V1.582l-.002-.016zm-3.205.813l-5.96 4.426-5.959-4.426h11.919zM2.26 9.952V3.167l7.097 5.27a.795.795 0 0 0 .951 0l7.097-5.27v6.785H2.26z"/>
</svg>
