<svg xmlns="http://www.w3.org/2000/svg" width="19" height="19">
    <path fill="#4BA9DD" fill-rule="evenodd" d="M18.165 2.513l-.041-.037-2.13-1.862a1.452 1.452 0 0 0-1.141-.379c-.386.033-.76.206-1.025.473a.78.78 0 0 0-.061.068l-2.093 2.651a1.511 1.511 0 0 0 .038 2.089.737.737 0 0 0 .121.101l1.07.714c-.085.372-.643 1.452-2.598 3.414-1.953 1.96-3.03 2.522-3.401 2.607l-.712-1.074a.73.73 0 0 0-.1-.122 1.497 1.497 0 0 0-2.081-.038l-2.642 2.1c-.024.02-.047.04-.069.062-.603.606-.642 1.593-.092 2.174l1.855 2.138.037.04c.367.368.916.5 1.518.5 1.087 0 2.344-.432 2.998-.69 1.262-.499 3.748-1.703 6.205-4.169 1.822-1.828 3.296-4.039 4.154-6.228.4-1.019 1.217-3.5.19-4.532zM12.7 12.147c-3.67 3.685-7.786 4.686-8.487 4.346l-1.798-2.072a.014.014 0 0 0 .002-.006l2.587-2.056.695 1.05a1.32 1.32 0 0 0 1.021.544c.385.02 1.553.081 4.707-3.083.78-.783 3.154-3.165 3.072-4.723a1.337 1.337 0 0 0-.483-.981.59.59 0 0 0-.059-.043l-1.046-.699 2.049-2.595.006-.003L17.03 3.63c.338.704-.659 4.833-4.33 8.517z"/>
</svg>
