<svg xmlns="http://www.w3.org/2000/svg" width="31" height="42">
    <path fill="#1453B1" fill-rule="evenodd" d="M29.511 19.517a2.577 2.577 0 0 1-.94.72 2.4 2.4 0 0 1-1.167.2c-.936-.076-1.88-.692-2.433-2.021-.494-1.19-1.143-2.074-1.939-2.641a4.104 4.104 0 0 0-1.385-.639c.927 1.824 2.488 4.934 3.114 9.956.084.667.049 1.406.014 2.177-.059 1.269-.122 2.639.423 3.629 1.232 2.238 3.145 5.072 3.862 6.134.192.284.307.456.343.527l-.002.001c.453.895.475 1.742.229 2.455a2.918 2.918 0 0 1-.89 1.285 3.033 3.033 0 0 1-1.359.649 2.657 2.657 0 0 1-2.119-.467c-.661-.492-1.446-1.509-2.22-2.695-1.079-1.65-2.167-3.659-2.834-4.95l-.102-.199c-.69-1.332-1.545-2.984-1.874-5.245-.625.12-1.475.29-2.249.474l.689.7c.737.75 1.48 1.506 2.103 2.107.722.698 1.022 1.494 1.025 2.253a2.906 2.906 0 0 1-.418 1.503 3.023 3.023 0 0 1-1.069 1.06 2.66 2.66 0 0 1-2.152.257c-.826-.259-1.071-.462-2.591-1.726-.279-.233-.627-.522-1.588-1.308v-.004l-.123-.1c-1.346-1.104-2.718-2.231-3.777-3.253a3.963 3.963 0 0 1-.715-.969c-.295-.551-.502-1.218-.507-1.893-.004-.734.221-1.467.808-2.074.225-.233.502-.443.839-.624l.089-.044 5.051-1.995a173.985 173.985 0 0 0-1.729-6.158c-2.236-.01-4.346-.631-6.183-1.895-1.89-1.3-3.473-3.274-4.584-5.954v-.003a4.194 4.194 0 0 1-.288-1.06 3.215 3.215 0 0 1 .035-1.062l.003-.02.021-.091.004-.021a2.616 2.616 0 0 1 1.129-1.587 2.508 2.508 0 0 1 1.92-.32c1.282.296 1.753 1.18 2.314 2.23.588 1.102 1.314 2.462 3.751 3.025a7.366 7.366 0 0 0 2.876.089c.97-.15 1.978-.46 3.098-.818h.003c2.785-.886 5.618-.511 8.044.715a12.325 12.325 0 0 1 5.77 6.222h.001c.598 1.436.329 2.678-.321 3.468zM18.115 5.127a4.598 4.598 0 0 1-1.71 3.083 4.507 4.507 0 0 1-3.353.978 4.72 4.72 0 0 1-3.146-1.737c-.706-.886-1.097-2.047-.948-3.364v-.004A4.597 4.597 0 0 1 10.88.845a4.597 4.597 0 0 1 3.699-.727 4.59 4.59 0 0 1 2.723 1.831c.632.895.945 2.014.813 3.175v.003z"/>
</svg>
