<svg xmlns="http://www.w3.org/2000/svg" width="42" height="42">
    <path fill="#1453B1" fill-rule="evenodd" d="M40.848 41.279a2.604 2.604 0 0 1-1.86.73 2.612 2.612 0 0 1-1.84-.796l-8.01-8.295-.001.001h-.001l-.01-.014a2.608 2.608 0 0 1-.73-1.86 2.62 2.62 0 0 1 .281-1.115l-9.679-10.023c-3.645 3.108-7.404 3.285-10.585 1.773-1.415-.673-2.705-1.674-3.806-2.884a15.593 15.593 0 0 1-2.672-4.101C.046 10.478.06 5.521 3.306 2.382c3.22-3.115 8.22-2.926 12.402-.859a15.745 15.745 0 0 1 4.01 2.825c1.176 1.149 2.132 2.474 2.748 3.907 1.385 3.222 1.088 6.952-2.188 10.464l9.654 9.997a2.63 2.63 0 0 1 1.122-.241 2.617 2.617 0 0 1 1.839.797l8.022 8.307c.499.517.742 1.191.73 1.861a2.608 2.608 0 0 1-.797 1.839zM20.859 8.946c-.526-1.223-1.346-2.357-2.358-3.347a14.004 14.004 0 0 0-3.566-2.51C11.358 1.321 7.143 1.1 4.516 3.64c-2.649 2.562-2.602 6.74-.987 10.344a13.828 13.828 0 0 0 2.37 3.636c.955 1.049 2.06 1.91 3.26 2.481 2.756 1.31 6.078 1.071 9.304-2.023 3.216-3.086 3.589-6.358 2.396-9.132zM39.657 38.79l-8.022-8.307a.862.862 0 0 0-.609-.264.877.877 0 0 0-.61.233l.001.001-.014.011a.875.875 0 0 0-.03 1.219l.001-.002.01.014 8.022 8.307a.868.868 0 0 0 .94.205.867.867 0 0 0 .555-.795.87.87 0 0 0-.244-.622zM13.546 27.328c.122-.03.237-.045.343-.045.364 0 .694.128.972.353a1.52 1.52 0 0 1 .969-.353c.362 0 .692.128.97.354.278-.226.607-.354.97-.354s.692.128.97.355c.278-.227.608-.355.971-.355.11 0 .228.016.349.045.414.102.813.388 1.094.779.263.365.44.835.44 1.336 0 .163-.021.335-.065.516l-2.088 8.519c.011.045.031.09.04.135.03.156.045.31.045.46a2.49 2.49 0 0 1-.829 1.841 2.81 2.81 0 0 1-1.897.729 2.809 2.809 0 0 1-1.896-.729 2.49 2.49 0 0 1-.829-1.841c0-.155.016-.312.047-.468.002-.015.009-.028.012-.042l-2.063-8.607a2.17 2.17 0 0 1-.064-.51c0-.503.177-.974.44-1.34.282-.393.683-.679 1.099-.778zm2.284 1.706h-.013l.01.006.003.001.002-.001.01-.006h-.012zm1.94 0h-.013l.01.006.003.001.003-.001.01-.006h-.013zm-4.003.518l1.917 7.996h2.188l1.961-7.999a.546.546 0 0 0-.091-.419 1.41 1.41 0 0 0-.126.624h-1.751c0-.216-.035-.406-.095-.555-.06.149-.095.339-.095.555h-1.75c0-.216-.036-.406-.095-.555-.06.149-.095.339-.095.555h-1.751c0-.251-.047-.468-.126-.623a.554.554 0 0 0-.091.421z"/>
</svg>
