<svg xmlns="http://www.w3.org/2000/svg" width="23" height="41">
    <path fill="#1453B1" fill-rule="evenodd" d="M22.178 10.733a4.055 4.055 0 0 1-1.302 1.517 4.3 4.3 0 0 1-1.898.739c-.647.088-1.356.003-2.004-.216-.649-.219-1.254-.578-1.694-1.037a3.972 3.972 0 0 1-1.064-2.128 3.858 3.858 0 0 1 .359-2.324 4.139 4.139 0 0 1 2.387-2.072 4.358 4.358 0 0 1 3.215.154 4.084 4.084 0 0 1 2.162 2.287 3.86 3.86 0 0 1-.161 3.08zm-1.481-2.518a2.393 2.393 0 0 0-1.263-1.341 2.557 2.557 0 0 0-1.886-.089 2.422 2.422 0 0 0-1.399 1.21v.001a2.27 2.27 0 0 0-.209 1.364c.073.463.288.899.621 1.247.244.254.599.46.992.593.397.134.817.188 1.186.138a2.512 2.512 0 0 0 1.108-.433c.316-.223.578-.522.757-.884a2.268 2.268 0 0 0 .093-1.806zm-5.22-2.878h-.003l-.003.001h-.004a4.724 4.724 0 0 0-2.129 1.055 3.716 3.716 0 0 0-1.057 1.536 3.11 3.11 0 0 0-.096 1.764c.139.583.457 1.167.98 1.709.412.428.919.793 1.477 1.083a6.636 6.636 0 0 0 1.85.634l.363.067.203.299c.85 1.253 1.767 3.162 2.186 5.057.331 1.498.346 3.006-.202 4.244-.004.013-.002.028-.007.041l-.017.031v.005c-.005.011-.014.022-.019.033-.501 1.163-1.461 2.105-2.529 2.73-.44.256-.901.44-1.361.588-.133.05-.262.078-.394.119-.087.022-.173.049-.259.066-.214.056-.429.135-.637.163l2.682 11.204.001.003v.003c.163.687.02 1.373-.343 1.929a2.67 2.67 0 0 1-1.668 1.139l-.003.001h-.003a2.774 2.774 0 0 1-2.02-.329 2.56 2.56 0 0 1-1.185-1.599l-2.794-11.67c-1.089 1.859-2.265 7.371-2.86 10.155-.164.769-.287 1.346-.348 1.575a2.564 2.564 0 0 1-1.226 1.572 2.79 2.79 0 0 1-2.026.283H2.02a2.663 2.663 0 0 1-1.643-1.18 2.458 2.458 0 0 1-.293-1.941c.446-1.68.878-3.535 1.337-5.511 1.22-5.247 2.634-11.324 4.445-15.208.379-.812.727-1.529 1.133-2.195.311-.51.66-1 1.084-1.492a6.589 6.589 0 0 1-1.077-2.309c-.352-1.431-.205-2.935.35-4.341.547-1.386 1.489-2.676 2.736-3.705A10.288 10.288 0 0 1 14.37.861l.004-.001h.003a2.474 2.474 0 0 1 1.806.284c.523.309.923.808 1.075 1.422v.003l.001.003.001.003a2.207 2.207 0 0 1-.297 1.732 2.384 2.384 0 0 1-1.486 1.03zm-1.179 14l-.45 1.851c.112-.14.21-.288.289-.445.198-.39.279-.855.161-1.406zm1.687 4.486c.064-.048.118-.102.179-.152-.061.05-.115.104-.179.152zm.595-.506c.067-.064.118-.133.18-.199-.062.066-.113.135-.18.199zm.489-.547c.057-.074.093-.15.141-.226-.048.076-.084.152-.141.226zm.624-2.992c.012.1.009.193.017.292-.008-.099-.005-.192-.017-.292zm.047.861c-.001.112-.021.213-.029.321.008-.108.028-.209.029-.321zm-.169 1.107c.029-.103.071-.197.091-.306-.02.108-.062.203-.091.306zm-.137.43l-.004.008.001.001.003-.009zm-3.164 2.562c-.118.03-.229.044-.341.061.104-.016.203-.022.312-.048.009-.003.019-.01.029-.013zm-1.123.064zm-1.233 1.264c-.08-.051-.169-.095-.239-.153.076.063.157.121.244.176l2.885 12.049-2.89-12.072z"/>
</svg>
