<svg xmlns="http://www.w3.org/2000/svg" width="45" height="39">
    <path fill="#1453B1" fill-rule="evenodd" d="M.895 38.931V12.098h43.166v26.833H.895zm21.289-19.107c-3.03.235-5.423 2.74-5.423 5.829 0 3.09 2.393 5.595 5.423 5.829V19.824zm.904 11.658c3.029-.234 5.422-2.739 5.422-5.829 0-3.089-2.393-5.594-5.422-5.829v11.658zm-21.525-.406h6.16V19.779h-6.16v11.297zm.281-12.653h7.235v14.009H1.844v5.49h20.34v-5.536c-3.529-.237-6.327-3.144-6.327-6.733 0-3.589 2.798-6.496 6.327-6.733v-5.811H1.844v5.314zm41.406-5.314H23.088v5.811c3.528.237 6.326 3.144 6.326 6.733 0 3.589-2.798 6.496-6.326 6.733v5.536H43.25v-5.49h-7.057V18.423h7.057v-5.314zm.625 6.67h-6.327v11.297h6.327V19.779zm-10.937-9.576c-.574.273-1.239.409-1.997.409-.767 0-1.43-.129-1.989-.388-.559-.258-.982-.6-1.269-1.026a2.588 2.588 0 0 1-.457-1.372v-.028c0-.074.03-.136.09-.187a.302.302 0 0 1 .201-.076h1.317c.213 0 .347.092.402.277.129.407.344.707.645.901.3.194.653.291 1.06.291.518 0 .945-.157 1.283-.471.337-.314.506-.749.506-1.303 0-.499-.169-.903-.506-1.213-.338-.31-.765-.465-1.283-.465-.277 0-.504.037-.679.111a2.275 2.275 0 0 0-.513.305c-.019.01-.06.037-.125.083a.707.707 0 0 1-.173.097.451.451 0 0 1-.159.028h-1.304a.292.292 0 0 1-.214-.09.291.291 0 0 1-.091-.215l.472-4.727a.403.403 0 0 1 .131-.284.414.414 0 0 1 .285-.104h5.212c.102 0 .183.03.243.09s.09.141.09.242v.943c0 .093-.03.171-.09.236a.314.314 0 0 1-.243.097h-4.006l-.222 2.246c.212-.139.457-.252.735-.34.277-.088.637-.132 1.081-.132.601 0 1.158.127 1.671.382a3.07 3.07 0 0 1 1.233 1.095c.31.476.465 1.028.465 1.656 0 .675-.157 1.264-.472 1.768a3.08 3.08 0 0 1-1.33 1.164zm-6.779.257h-1.484c-.166 0-.31-.083-.43-.25l-2.19-3.119-2.163 3.119c-.12.167-.263.25-.429.25h-1.442a.29.29 0 0 1-.201-.083.273.273 0 0 1-.09-.208.43.43 0 0 1 .055-.167l3.092-4.491-2.898-4.298a.296.296 0 0 1-.055-.166c0-.083.03-.153.09-.208a.287.287 0 0 1 .201-.083h1.456c.166 0 .309.088.429.263l2.024 2.967 2.038-2.967c.102-.175.245-.263.43-.263h1.372c.074 0 .141.027.201.083.06.055.091.125.091.208a.427.427 0 0 1-.056.166l-2.897 4.298 3.105 4.491a.369.369 0 0 1 .042.167.285.285 0 0 1-.291.291zm-11.021-.257c-.574.273-1.239.409-1.997.409-.767 0-1.43-.129-1.989-.388-.559-.258-.982-.6-1.269-1.026a2.588 2.588 0 0 1-.457-1.372v-.028c0-.074.03-.136.09-.187a.302.302 0 0 1 .201-.076h1.317c.213 0 .347.092.402.277.129.407.344.707.645.901.3.194.653.291 1.06.291.518 0 .945-.157 1.283-.471.337-.314.506-.749.506-1.303 0-.499-.169-.903-.506-1.213-.338-.31-.765-.465-1.283-.465-.277 0-.504.037-.679.111a2.275 2.275 0 0 0-.513.305c-.019.01-.06.037-.125.083a.707.707 0 0 1-.173.097.453.453 0 0 1-.16.028h-1.303a.294.294 0 0 1-.215-.09.294.294 0 0 1-.09-.215l.472-4.727a.403.403 0 0 1 .131-.284.414.414 0 0 1 .285-.104h5.212c.102 0 .183.03.243.09s.09.141.09.242v.943c0 .093-.03.171-.09.236a.314.314 0 0 1-.243.097h-4.006l-.222 2.246c.212-.139.457-.252.735-.34.277-.088.637-.132 1.081-.132.601 0 1.158.127 1.67.382.513.254.925.619 1.234 1.095.31.476.465 1.028.465 1.656 0 .675-.158 1.264-.472 1.768a3.086 3.086 0 0 1-1.33 1.164z"/>
</svg>
