<svg xmlns="http://www.w3.org/2000/svg" width="29" height="41">
    <path fill="#1453B1" fill-rule="evenodd" d="M28.516 14.16v.003c-1.547 1.719-3.368 3.178-5.253 3.733-1.195.352-2.399.351-3.563-.148v7.667l.829 12.436v.097c-.039.75-.282 1.311-.643 1.709-.45.496-1.054.713-1.671.715-.649.002-1.197-.147-1.668-.539-.44-.367-.762-.911-.979-1.709l-.019-.101-.846-5.921-.846 5.921-.02.101c-.217.798-.539 1.342-.978 1.709-.472.392-1.019.541-1.669.539-.617-.002-1.221-.219-1.671-.715-.361-.398-.604-.959-.643-1.709v-.097l.829-12.436v-7.667c-1.163.499-2.368.5-3.563.148-1.885-.555-3.706-2.014-5.252-3.733v-.003c-.517-.577-.566-1.32-.346-1.918.082-.227.208-.438.363-.615.172-.196.383-.351.622-.446.06-.024.124-.032.185-.049.885-3.091 2.452-5.787 4.683-7.696C8.569 1.578 11.349.468 14.703.456c3.353.012 6.133 1.122 8.305 2.98 2.231 1.909 3.798 4.605 4.683 7.696.062.017.125.025.185.049.239.095.45.25.622.446.155.177.281.388.364.615.219.598.17 1.341-.346 1.918zm-6.588-9.463c-1.882-1.61-4.3-2.573-7.225-2.583-2.926.01-5.343.973-7.226 2.583C5.485 6.401 4.094 8.849 3.3 11.663c1.119.916 2.416 1.554 3.664 1.685 1.096.115 2.152-.164 2.98-.991.037-.04.077-.078.119-.115.728-.638 2.71-.956 4.64-.956 1.929 0 3.911.318 4.639.956.042.037.082.075.119.115.828.827 1.884 1.106 2.98.991 1.248-.131 2.546-.769 3.665-1.685-.795-2.814-2.186-5.262-4.178-6.966zm-4.562 4.598a3.757 3.757 0 0 1-2.646 1.084 3.755 3.755 0 0 1-2.645-1.084 3.68 3.68 0 0 1 0-5.255 3.755 3.755 0 0 1 2.645-1.084c1.031 0 1.967.414 2.646 1.084a3.677 3.677 0 0 1 0 5.255zm-1.164-4.072a2.102 2.102 0 0 0-1.482-.602c-.58 0-1.104.23-1.481.602a2.024 2.024 0 0 0-.604 1.444c0 .566.231 1.077.604 1.445.377.373.901.603 1.481.603.581 0 1.105-.231 1.482-.603.374-.369.605-.879.605-1.445a2.02 2.02 0 0 0-.605-1.444z"/>
</svg>
