<svg xmlns="http://www.w3.org/2000/svg" width="28" height="38">
    <path fill="#1453B1" fill-rule="evenodd" d="M26.578 17.857a2.306 2.306 0 0 1-.842.645 2.16 2.16 0 0 1-1.046.179c-.838-.068-1.684-.62-2.179-1.811-.443-1.066-1.025-1.858-1.737-2.366a3.71 3.71 0 0 0-1.241-.572c.83 1.633 2.228 4.421 2.79 8.92.074.597.044 1.259.012 1.95-.053 1.137-.11 2.365.379 3.252.096.174.202.357.306.538l-4.357 2.89a57.26 57.26 0 0 1-.419-.796l-.092-.178c-.618-1.193-1.384-2.673-1.679-4.699a46.88 46.88 0 0 0-2.015.425l.544.552-6.476 1.822a31.272 31.272 0 0 1-1.146-1.04 3.528 3.528 0 0 1-.642-.869 3.719 3.719 0 0 1-.453-1.696c-.005-.657.198-1.313.724-1.858.201-.208.449-.397.751-.558l.079-.04 4.526-1.788a158.317 158.317 0 0 0-1.549-5.516c-2.003-.01-3.894-.566-5.54-1.698-1.693-1.166-3.111-2.934-4.106-5.335v-.003a3.715 3.715 0 0 1-.258-.949c-.043-.341-.03-.66.03-.951l.004-.019.018-.081.004-.019A2.34 2.34 0 0 1 1.98 4.767a2.244 2.244 0 0 1 1.719-.288c1.149.266 1.571 1.057 2.073 1.998.528.988 1.178 2.206 3.361 2.711a6.627 6.627 0 0 0 2.577.08c.869-.135 1.772-.412 2.775-.734h.004c2.494-.793 5.033-.457 7.207.641a11.044 11.044 0 0 1 5.169 5.575l.001-.001c.535 1.288.294 2.4-.288 3.108zM16.368 4.964a4.12 4.12 0 0 1-1.532 2.763 4.035 4.035 0 0 1-3.004.875 4.22 4.22 0 0 1-2.819-1.556 4.032 4.032 0 0 1-.849-3.014v-.003a4.118 4.118 0 0 1 1.722-2.901A4.114 4.114 0 0 1 13.2.477a4.12 4.12 0 0 1 3.168 4.484v.003zm-2.009-1.946a2.542 2.542 0 0 0-1.802-1.066 2.559 2.559 0 0 0-1.77.456A2.549 2.549 0 0 0 9.72 4.207h-.001a2.5 2.5 0 0 0 .519 1.865c.215.27.484.494.786.66.303.167.637.276.98.314a2.495 2.495 0 0 0 1.858-.544c.27-.214.488-.473.648-.761.16-.288.263-.611.302-.954h.001a2.56 2.56 0 0 0-.454-1.769zm.727 23.853c.657.669 1.319 1.342 1.874 1.878.646.625.915 1.338.917 2.018a2.61 2.61 0 0 1-.373 1.346c-.063.105-.148.191-.224.285l-.191.127.035.073c-.173.18-.365.341-.579.465a2.384 2.384 0 0 1-1.928.231c-.74-.232-.959-.415-2.321-1.547-.25-.208-.561-.467-1.423-1.172v-.003l-.11-.09-.354-.291 4.677-3.32zm11.088 6.678c.172.255.275.409.307.472l-.001.001c.405.802.425 1.561.205 2.2a2.613 2.613 0 0 1-.798 1.15c-.35.294-.774.496-1.218.582a2.38 2.38 0 0 1-1.898-.418c-.592-.441-1.295-1.352-1.989-2.414-.43-.659-.858-1.38-1.258-2.081l4.213-3.244c.949 1.546 1.973 3.064 2.437 3.752z"/>
</svg>
