<svg xmlns="http://www.w3.org/2000/svg" width="42" height="38">
    <path fill="#1453B1" fill-rule="evenodd" d="M41.182 4.954L31.547.425c-.03-.014-.034-.018-.064-.03-.065-.025-.115-.045-.181-.062a1.361 1.361 0 0 0-.383-.049 1.445 1.445 0 0 0-.392.049 1.697 1.697 0 0 0-.195.062c-.031.012-.063.016-.093.03l-9.009 4.21-9.008-4.21c-.03-.014-.062-.018-.093-.03a1.637 1.637 0 0 0-1.179 0c-.03.013-.063.016-.093.03L1.049 4.954C.48 5.219.001 5.791.001 6.42v29.678c0 .554.397 1.068.863 1.365.263.168.623.254.925.254.233 0 .495-.051.712-.152l9.024-4.209 9.015 4.209c.003.001.009.001.012.003.095.043.195.075.296.099l.073.016c.102.02.205.034.309.034.103 0 .206-.014.308-.034l.073-.016c.1-.024.199-.056.295-.1l.007-.002 9.009-4.209 9.01 4.209c.217.101.45.152.682.152.303 0 .489-.086.753-.254.466-.297.632-.811.632-1.365V6.42c0-.629-.248-1.201-.817-1.466zM19.174 33.558l-5.935-3.018V4.432l5.935 3.019v26.107zM3.196 7.451l6.391-3.019V30.54l-6.391 3.019V7.451zm19.63 0l6.391-3.019V30.54l-6.391 3.019V7.451zm15.978 26.108l-6.391-3.019V4.432l6.391 3.019v26.108z"/>
</svg>
