<svg xmlns="http://www.w3.org/2000/svg" width="43" height="28">
    <path fill="#1453B1" fill-rule="evenodd" d="M42.564 22.449c-.423.244-.875.43-1.341.554a5.645 5.645 0 0 1-1.444.189 5.55 5.55 0 0 1-3.154-.975 5.218 5.218 0 0 1-1.123-1.046c-.32.401-.699.753-1.124 1.046a5.557 5.557 0 0 1-3.154.975 5.554 5.554 0 0 1-3.152-.974 5.244 5.244 0 0 1-1.124-1.045c-.319.4-.699.752-1.124 1.045a5.55 5.55 0 0 1-3.152.974 5.557 5.557 0 0 1-3.154-.975 5.218 5.218 0 0 1-1.123-1.046 5.223 5.223 0 0 1-1.124 1.046 5.548 5.548 0 0 1-3.153.975 5.555 5.555 0 0 1-3.153-.974 5.244 5.244 0 0 1-1.124-1.045 5.22 5.22 0 0 1-1.124 1.045 5.55 5.55 0 0 1-3.152.974 5.618 5.618 0 0 1-1.491-.204 5.476 5.476 0 0 1-1.378-.587.872.872 0 0 1 .896-1.497c.295.177.612.312.941.403.325.089.673.135 1.032.135a3.8 3.8 0 0 0 2.161-.66 3.324 3.324 0 0 0 1.285-1.687.874.874 0 0 1 1.661 0 3.328 3.328 0 0 0 1.284 1.687c.607.419 1.359.66 2.162.66.803 0 1.555-.242 2.162-.66a3.33 3.33 0 0 0 1.284-1.69.874.874 0 0 1 1.661 0 3.335 3.335 0 0 0 1.284 1.69c.607.418 1.359.66 2.163.66a3.8 3.8 0 0 0 2.161-.66 3.323 3.323 0 0 0 1.284-1.687.875.875 0 0 1 1.662 0 3.323 3.323 0 0 0 1.284 1.687 3.8 3.8 0 0 0 2.161.66c.804 0 1.556-.242 2.163-.66a3.335 3.335 0 0 0 1.284-1.69.874.874 0 0 1 1.661 0 3.335 3.335 0 0 0 1.284 1.69c.607.418 1.359.66 2.163.66.344 0 .68-.044.999-.128.325-.086.634-.212.918-.376a.87.87 0 1 1 .868 1.511zm-4.443-9.916l.001.001a3.903 3.903 0 0 1-2.652.618 3.85 3.85 0 0 1-2.349-1.203l-4.51-3.965-1.938.885 8.149 5.758a.874.874 0 0 1 .133 1.313 5.507 5.507 0 0 1-7.105 1.165 5.555 5.555 0 0 1-1.262-1.059 5.37 5.37 0 0 1-1.578 1.231 5.628 5.628 0 0 1-2.578.617 5.65 5.65 0 0 1-2.575-.617 5.421 5.421 0 0 1-1.671-1.326 6.045 6.045 0 0 1-.977.758 6.688 6.688 0 0 1-3.104 1.001c-1.119.069-2.247-.167-3.209-.78a4.82 4.82 0 0 1-1.505-1.528.87.87 0 0 1-.02-.889c.473-.84 1.346-2.146 2.218-3.449.813-1.217 1.625-2.431 2.076-3.211a7.368 7.368 0 0 1 1.334-1.441 4.582 4.582 0 0 1 1.334-.763C18.995 4.366 26.807.913 26.829.903l.051-.02a5.41 5.41 0 0 1 3.398-.309 5.54 5.54 0 0 1 2.952 1.771l5.334 4.901a.816.816 0 0 1 .098.106c.641.767.909 1.715.829 2.634a3.686 3.686 0 0 1-1.283 2.482.757.757 0 0 1-.087.065zm-27.64-1.992a5.182 5.182 0 0 1-3.336 2.075 5.23 5.23 0 0 1-3.859-.856l-.101-.069a5.248 5.248 0 0 1-2.111-3.414 5.353 5.353 0 0 1 .868-3.933c.064-.093.011-.02.048-.072l.002.001c.833-1.164 2.075-1.866 3.394-2.079a5.297 5.297 0 0 1 3.851.853l.069.048a5.248 5.248 0 0 1 2.116 3.412 5.345 5.345 0 0 1-.87 3.931l-.071.103zm-.782-3.747a3.495 3.495 0 0 0-1.405-2.277l-.048-.035a3.56 3.56 0 0 0-2.586-.566c-.878.142-1.7.606-2.248 1.371v.003c-.065.091.003-.009-.034.045a3.614 3.614 0 0 0-.581 2.655c.15.894.633 1.726 1.406 2.279v.001l.004.003.071.051c.784.54 1.708.717 2.573.569a3.447 3.447 0 0 0 2.215-1.378l.05-.069a3.6 3.6 0 0 0 .583-2.652zm-5.05 18.918a3.895 3.895 0 0 0 .916.106c.803 0 1.554-.242 2.161-.66a3.324 3.324 0 0 0 1.285-1.687.874.874 0 0 1 1.661 0 3.328 3.328 0 0 0 1.284 1.687c.607.418 1.359.66 2.162.66.803 0 1.555-.242 2.162-.661a3.327 3.327 0 0 0 1.284-1.689.874.874 0 0 1 1.661 0 3.333 3.333 0 0 0 1.284 1.689 3.805 3.805 0 0 0 2.163.661c.803 0 1.554-.242 2.161-.66a3.323 3.323 0 0 0 1.284-1.687.874.874 0 0 1 1.662 0 3.323 3.323 0 0 0 1.284 1.687c.607.418 1.358.66 2.161.66.804 0 1.556-.242 2.163-.661a3.333 3.333 0 0 0 1.284-1.689.874.874 0 0 1 1.661 0 3.333 3.333 0 0 0 1.284 1.689 3.805 3.805 0 0 0 2.163.661 3.91 3.91 0 0 0 .898-.105.875.875 0 0 1 .404 1.703 5.737 5.737 0 0 1-1.302.152 5.557 5.557 0 0 1-3.154-.975 5.218 5.218 0 0 1-1.123-1.046c-.32.401-.699.753-1.124 1.046a5.557 5.557 0 0 1-3.154.975 5.56 5.56 0 0 1-3.152-.974 5.223 5.223 0 0 1-1.124-1.046 5.223 5.223 0 0 1-1.124 1.046 5.557 5.557 0 0 1-3.152.974 5.557 5.557 0 0 1-3.154-.975 5.218 5.218 0 0 1-1.123-1.046 5.223 5.223 0 0 1-1.124 1.046 5.556 5.556 0 0 1-3.153.975 5.563 5.563 0 0 1-3.153-.974 5.223 5.223 0 0 1-1.124-1.046 5.2 5.2 0 0 1-1.124 1.046 5.55 5.55 0 0 1-3.82.934 5.48 5.48 0 0 1-.658-.121.871.871 0 1 1 .41-1.695z"/>
</svg>
