<svg xmlns="http://www.w3.org/2000/svg" width="37" height="41">
    <path fill="#1453B1" fill-rule="evenodd" d="M35.839 15.026l-9.187 8.766c-.724 1.603-1.648 3.368-2.599 4.458l-.262 11.163a1.496 1.496 0 0 1-1.53 1.46c-.825-.02-3.229-2.705-2.084-3.155l.645-9.767c-1.877-2.838-1.902-4.78-1.902-4.78l-1.816-5.554-14.312.427C.228 18.151.228 16.655.228 16.655c-.107-1.815 1.689-2.44 1.689-2.44l16.789.197L30.428 1.045c4.379-.427 4.388 1.152 4.388 1.152l-9.089 9.886-1.253 2.436s-2.243 1.923-1.068 4.166c.977 1.865 1.013 1.882 2.342 1.836l8.026-7.659a1.496 1.496 0 0 1 2.065 2.164zM24.664 29.529a4.118 4.118 0 0 1 1.722-2.901 4.114 4.114 0 0 1 3.314-.651 4.12 4.12 0 0 1 3.168 4.484v.003a4.12 4.12 0 0 1-1.532 2.763 4.035 4.035 0 0 1-3.004.875 4.22 4.22 0 0 1-2.819-1.556 4.032 4.032 0 0 1-.849-3.014v-.003zm2.074 2.043c.215.27.484.494.786.66.303.167.637.276.98.314a2.495 2.495 0 0 0 1.858-.544c.27-.214.488-.473.648-.761.16-.288.263-.611.302-.954h.001a2.56 2.56 0 0 0-4.026-2.379 2.549 2.549 0 0 0-1.067 1.799h-.001a2.5 2.5 0 0 0 .519 1.865z"/>
</svg>
