<svg xmlns="http://www.w3.org/2000/svg" width="33" height="42">
    <path fill="#1453B1" fill-rule="evenodd" d="M26.035 9.692l-1.736 8.944-.139.711h-6.133l-.134-.718-1.929-9.655-.195-1.041h16.677v1.759h-6.411zm-2.78 5.106h-1.307v2.79h.766l.541-2.79zm-3.773 2.79h.707v-2.79h-1.271l.564 2.79zm-.92-4.548h1.627V9.692h-2.305l.678 3.348zm3.386-3.348v3.348h1.647l.649-3.348h-2.296zm-3.543-3.311a3.731 3.731 0 0 1-2.643 1.095 3.725 3.725 0 0 1-2.642-1.095v-.004a3.72 3.72 0 0 1-1.096-2.639v-.001h.004c0-1.031.417-1.964 1.091-2.639a3.73 3.73 0 0 1 2.642-1.099h.001c1.031 0 1.966.419 2.643 1.096A3.731 3.731 0 0 1 19.5 3.738a3.731 3.731 0 0 1-1.095 2.643zm-1.244-4.043a1.973 1.973 0 0 0-1.399-.58h-.001a1.98 1.98 0 0 0-1.982 1.979h.004v.001c0 .547.221 1.043.578 1.401l.002-.002a1.97 1.97 0 0 0 1.399.581 1.97 1.97 0 0 0 1.399-.581 1.974 1.974 0 0 0 0-2.799zM13.38 9.36c.314.093.612.245.868.449.683.543 1.071 1.413.738 2.492-.128.414-.24.817-.35 1.211-.515 1.851-.985 3.535-2.505 5.119a9.046 9.046 0 0 1-1.926 1.542c-.407.238-.83.432-1.255.563v6.327c0 .545-.12 1.192-.313 1.772a5.129 5.129 0 0 1-.388.888c2.329 3.719 1.467 5.254-.318 8.431a56.063 56.063 0 0 0-1.235 2.284h-.001c-.551 1.172-1.516 1.617-2.501 1.557a3.005 3.005 0 0 1-1.147-.311 3.368 3.368 0 0 1-.954-.707c-.786-.835-1.168-2.08-.566-3.392 2.617-5.694 2.003-6.147 1.263-6.693-.798-.588-1.676-1.236-1.676-3.448v-8.683c0-1.057.349-1.908.904-2.548a3.8 3.8 0 0 1 1.426-1.015 4.369 4.369 0 0 1 1.665-.328c.848 0 1.702.243 2.403.729.14-.02.278-.044.415-.075.217-.05.417-.115.591-.202l-.001-.001c.899-.455 1.202-1.843 1.468-3.067.098-.447.191-.875.321-1.296.341-1.107 1.204-1.633 2.11-1.703.324-.025.653.012.964.105zm-5.305 3.73c-.799.8-1.9 1.294-3.114 1.294a4.397 4.397 0 0 1-3.117-1.29 4.394 4.394 0 0 1-1.29-3.117c0-1.216.493-2.318 1.291-3.116a4.396 4.396 0 0 1 6.229.004 4.393 4.393 0 0 1 1.29 3.112 4.389 4.389 0 0 1-1.289 3.113zM6.831 8.101a2.635 2.635 0 0 0-1.87-.772c-.732 0-1.393.296-1.872.775a2.64 2.64 0 0 0-.777 1.873c0 .732.297 1.395.776 1.874a2.638 2.638 0 0 0 1.873.775 2.635 2.635 0 0 0 2.645-2.649c0-.733-.296-1.396-.775-1.876z"/>
</svg>
