<svg xmlns="http://www.w3.org/2000/svg" width="44" height="41">
    <path fill="#1453B1" fill-rule="evenodd" d="M43.065 34.72H31.366a.9.9 0 0 1-.9-.9h-2.107a15.735 15.735 0 0 0 .223 3.386.899.899 0 0 1-1.772.309c-.166-.94-.229-1.87-.244-2.795h-3.3v5.118a.9.9 0 0 1-1.8 0V34.72h-3.212a17.506 17.506 0 0 1-.244 2.795.898.898 0 1 1-1.771-.309c.202-1.143.267-2.271.223-3.386h-2.193a.9.9 0 0 1-.9.9H1.67a.9.9 0 0 1-.9-.9V1.528a.9.9 0 0 1 .9-.9h41.395a.9.9 0 0 1 .9.9V33.82a.9.9 0 0 1-.9.9zm-19.799-1.973h3.382c.055-.546.127-1.09.236-1.631h-3.618v1.631zm0-3.431h4.074c.19-.6.405-1.197.661-1.788h-4.735v1.788zm0-3.588h5.629c.508-.913 1.123-1.814 1.797-2.707h-7.426v2.707zm-5.094 7.019h3.294v-1.631h-3.53c.109.541.181 1.085.236 1.631zm-.692-3.431h3.986v-1.788H16.82c.256.591.471 1.188.66 1.788zm3.986-3.588v-2.707h-7.338c.674.893 1.289 1.794 1.798 2.707h5.54zM42.267 2.321H2.393v30.426h13.974a15.143 15.143 0 0 0-.541-2.743c-.717-2.355-2.021-4.662-3.913-6.921-.015-.019-.019-.042-.033-.062H9.769a.9.9 0 0 1 0-1.8h12.54c.02-.001.037-.011.057-.011.02 0 .037.01.057.011h12.543a.9.9 0 0 1 0 1.8H32.94c-.013.02-.017.043-.033.062-1.891 2.259-3.196 4.566-3.913 6.921a15.23 15.23 0 0 0-.541 2.743h13.814V2.321zm-7.301 17.101H9.769a.9.9 0 0 1 0-1.8h25.197a.9.9 0 0 1 0 1.8zm-1.051-9.814c.522.462.783 1.123.783 1.982 0 .61-.164 1.142-.492 1.595-.328.452-.781.801-1.358 1.046-.578.245-1.237.368-1.976.368-.823 0-1.518-.13-2.086-.389-.569-.258-.994-.584-1.276-.977-.282-.393-.432-.797-.45-1.213a.283.283 0 0 1 .291-.291h1.275c.203 0 .342.092.416.277.203.656.813.984 1.83.984.564 0 1.005-.129 1.324-.388.319-.258.478-.628.478-1.109 0-.48-.145-.829-.436-1.046-.292-.218-.719-.326-1.283-.326h-1.428a.322.322 0 0 1-.235-.097.32.32 0 0 1-.097-.236v-.596c0-.176.06-.314.18-.416l2.468-2.412h-3.951a.338.338 0 0 1-.25-.097.32.32 0 0 1-.097-.236v-.929c0-.101.032-.184.097-.249a.338.338 0 0 1 .25-.097h5.961c.101 0 .184.032.249.097a.337.337 0 0 1 .097.249v.846c0 .157-.06.287-.18.388L31.635 8.79l.166.014c.887.074 1.592.342 2.114.804zM26.02 14.46h-1.483c-.167 0-.31-.083-.43-.25l-2.19-3.119-2.163 3.119c-.12.167-.263.25-.43.25h-1.442a.29.29 0 0 1-.201-.083.273.273 0 0 1-.09-.208c0-.037.019-.092.056-.167l3.091-4.491-2.897-4.298a.298.298 0 0 1-.056-.166c0-.083.03-.153.09-.208a.287.287 0 0 1 .201-.083h1.456c.166 0 .31.088.43.263l2.024 2.967 2.038-2.967c.101-.175.245-.263.43-.263h1.372c.074 0 .141.027.201.083.06.055.09.125.09.208a.439.439 0 0 1-.055.166l-2.898 4.298 3.106 4.491a.38.38 0 0 1 .041.167.285.285 0 0 1-.291.291zM15.976 9.608c.522.462.783 1.123.783 1.982 0 .61-.164 1.142-.492 1.595-.328.452-.781.801-1.358 1.046-.578.245-1.236.368-1.976.368-.822 0-1.518-.13-2.086-.389-.569-.258-.994-.584-1.276-.977-.282-.393-.432-.797-.45-1.213a.285.285 0 0 1 .291-.291h1.275c.204 0 .342.092.416.277.204.656.813.984 1.83.984.564 0 1.005-.129 1.324-.388.319-.258.478-.628.478-1.109 0-.48-.145-.829-.436-1.046-.291-.218-.719-.326-1.283-.326h-1.427a.322.322 0 0 1-.236-.097.32.32 0 0 1-.097-.236v-.596c0-.176.06-.314.18-.416l2.468-2.412H9.953a.338.338 0 0 1-.25-.097.32.32 0 0 1-.097-.236v-.929c0-.101.032-.184.097-.249a.338.338 0 0 1 .25-.097h5.961c.101 0 .185.032.249.097a.337.337 0 0 1 .097.249v.846c0 .157-.06.287-.18.388L13.696 8.79l.166.014c.887.074 1.592.342 2.114.804z"/>
</svg>
