<svg xmlns="http://www.w3.org/2000/svg" width="43" height="36">
    <path fill="#1453B1" fill-rule="evenodd" d="M40.061 33.503a8.29 8.29 0 0 1-5.874 2.437 8.286 8.286 0 0 1-5.874-2.437 8.286 8.286 0 0 1-2.437-5.875c0-2.291.932-4.37 2.437-5.875a8.286 8.286 0 0 1 5.874-2.437c2.29 0 4.368.932 5.874 2.438a8.284 8.284 0 0 1 0 11.749zM38.83 22.991a6.552 6.552 0 0 0-9.279 0 6.539 6.539 0 0 0-1.925 4.637c0 1.809.736 3.449 1.925 4.638a6.54 6.54 0 0 0 4.636 1.924 6.548 6.548 0 0 0 4.643-1.925 6.536 6.536 0 0 0 1.923-4.637 6.54 6.54 0 0 0-1.923-4.637zm-8.8-3.238a2.18 2.18 0 0 1-.19.179l-.096.069-5.62 3.497-.002 8.066v.045c-.043.845-.341 1.434-.747 1.84-.562.563-1.304.729-1.865.737h-.006l-.025.001-.003.003a2.694 2.694 0 0 1-1.705-.616c-.512-.43-.88-1.078-.893-1.966v-.04l-.003-.004v-8.751c0-2.45 1.929-4.229 3.644-5.809l.356-.329-3.864-3.865-1.158 1.737-.004-.002c-.309.468-.665.78-1.094.984-.402.191-.842.271-1.353.289h-.028l-7.001-.009v.003c-1.288 0-2.151-.526-2.56-1.199a1.904 1.904 0 0 1-.284-.989 1.9 1.9 0 0 1 .284-.988c.409-.673 1.272-1.199 2.56-1.199h5.634l2.369-3.949.02-.034c.142-.215.295-.406.457-.576.658-.688 1.441-.998 2.259-1.009.771-.009 1.551.256 2.26.725.275.182.541.395.792.635l-.001.001 7.798 7.061.017.014c.077.073.144.145.202.216.566.684.804 1.713.765 2.692-.039.979-.362 1.957-.917 2.539l.002.001zM12.617 7.936a3.926 3.926 0 0 1-2.785-1.153 3.924 3.924 0 0 1-1.153-2.785c0-1.087.441-2.071 1.154-2.784A3.925 3.925 0 0 1 12.617.06c1.088 0 2.072.441 2.784 1.153a3.927 3.927 0 0 1 1.154 2.785 3.92 3.92 0 0 1-1.153 2.785 3.923 3.923 0 0 1-2.785 1.153zm2.065 13.818a8.284 8.284 0 0 1 0 11.749 8.29 8.29 0 0 1-5.874 2.437 8.286 8.286 0 0 1-5.874-2.437 8.286 8.286 0 0 1-2.437-5.875c0-2.291.932-4.37 2.437-5.875a8.286 8.286 0 0 1 5.874-2.437c2.29 0 4.368.932 5.874 2.438zM2.247 27.628c0 1.809.736 3.449 1.925 4.638a6.54 6.54 0 0 0 4.636 1.924 6.548 6.548 0 0 0 4.643-1.925 6.536 6.536 0 0 0 1.923-4.637 6.54 6.54 0 0 0-1.923-4.637 6.552 6.552 0 0 0-9.279 0 6.539 6.539 0 0 0-1.925 4.637z"/>
</svg>
