<svg xmlns="http://www.w3.org/2000/svg" width="42" height="40">
    <path fill="#1453B1" fill-rule="evenodd" d="M31.642 15.764l9.507 8.949-2.253 5.465-.145-.003.2.233H28.57l.362-.42-.228-.005-7.292-14.777 6.097-8.266h2.584l3.823-3.44v3.543s5.167 0 7.957 6.097l-2.48 3.203s-4.134-2.295-7.751-.579zM1.273 10.689L.113.814H5.2v4.937h3.035V.814h4.552v4.937h3.034V.814h5.088l-1.161 9.875H1.273zm14.744.428v19.291H5.005v-19.38l11.012.089zm2.21 22.228l.25.315v5.551H2.545V33.66l.25-.315h15.432zm23.206 0v5.866H26.088v-5.866h15.345z"/>
</svg>
