<svg xmlns="http://www.w3.org/2000/svg" width="31" height="43">
    <path fill="#1453B1" fill-rule="evenodd" d="M30.751 18.721a2.296 2.296 0 0 1-.617.948 2.15 2.15 0 0 1-1.024.516c-.781.159-1.713-.095-2.572-.975a.845.845 0 0 1-.053-.051l-2.345-2.483c1.166 5.437.149 8.22-.594 10.251-.409 1.118-.717 1.962-.376 2.868l-.001.001 3.677 8.508a2.813 2.813 0 0 1 .378 1.402c0 .479-.126.955-.366 1.38a2.803 2.803 0 0 1-.993 1.026l-.003.001a2.812 2.812 0 0 1-3.848-.954l.002-.001a.942.942 0 0 1-.067-.135c-.373-.966-.703-1.796-1.027-2.611-1.357-3.42-2.615-6.588-3.498-10.215-1.441 2.042-1.759 3.687-2.072 5.309-.333 1.723-.661 3.423-2.108 5.517l-.01.014c-.267.37-.626.652-1.002.843a2.919 2.919 0 0 1-1.291.324 2.77 2.77 0 0 1-2.483-1.53 2.788 2.788 0 0 1 .217-2.915l.002.002.001-.002c1.144-1.59 1.35-2.99 1.56-4.414.216-1.467.436-2.957 1.515-4.744.718-1.189 1.493-2.342 2.26-3.482.729-1.083 1.45-2.155 2.132-3.286l-1.686 1.012c-1.201.72-2.336.728-3.138.327a2.23 2.23 0 0 1-.888-.79 2.198 2.198 0 0 1-.343-1.154c-.016-.896.488-1.933 1.738-2.786l3.553-2.815c-.27-1.343-.187-2.369.139-3.16.404-.979 1.139-1.565 2.037-1.92 1.284-.508 2.809-.557 4.221-.243 1.422.316 2.749 1.007 3.621 1.974a.764.764 0 0 1 .074.085c.734.957 1.501 1.806 2.267 2.655.784.868 1.567 1.736 2.355 2.764l-.002.001c.815 1.027.945 2.109.658 2.938zM18.604 7.228a3.923 3.923 0 0 1-2.783 1.152 3.923 3.923 0 0 1-2.783-1.152 3.923 3.923 0 0 1-1.152-2.783c0-1.086.44-2.071 1.153-2.783A3.92 3.92 0 0 1 15.821.509a3.92 3.92 0 0 1 2.782 1.154 3.92 3.92 0 0 1 1.154 2.782 3.924 3.924 0 0 1-1.153 2.783zm-1.207-4.359a2.225 2.225 0 0 0-3.152 0c-.403.403-.652.96-.652 1.576a2.223 2.223 0 0 0 2.228 2.229 2.226 2.226 0 0 0 2.229-2.229c0-.615-.25-1.172-.653-1.576zM6.798 34.435a3.92 3.92 0 0 1-2.78 1.155 3.92 3.92 0 0 1-2.781-1.152 3.925 3.925 0 0 1 .004-5.56 3.924 3.924 0 0 1 5.557 0 3.923 3.923 0 0 1 1.151 2.78c0 1.084-.44 2.065-1.151 2.777zm-1.207-4.35a2.217 2.217 0 0 0-1.573-.652 2.222 2.222 0 0 0-2.225 2.225c0 .615.249 1.171.651 1.573.403.403.959.652 1.574.652a2.216 2.216 0 0 0 2.225-2.225c0-.614-.25-1.17-.652-1.573z"/>
</svg>
