<svg xmlns="http://www.w3.org/2000/svg" width="26" height="43">
    <path fill="#1453B1" fill-rule="evenodd" d="M25.699 21.232l-1.766 4.36c-2.816 3.202-2.319-.607-2.319-.607l1.159-3.864.276-.883-3.036-2.153S4.337 41.6 4.005 41.821c0 0 4.085-.993.221.276-3.864 1.27-2.097-2.649-2.097-2.649l7.396-15.125s-5.961 6.293-6.403 6.679C-.135 33.21.528 29.401.528 29.401l9.66-15.456-4.637-1.104S.112 6.519.693 7.597C-1.57 3.402 2.57 5.941 2.57 5.941l4.582 3.864 7.176.552 7.01 3.367s3.864 5.079 4.306 5.686c.441.607.055 1.822.055 1.822zm-5.465-9.441a4.14 4.14 0 1 1 .001-8.281 4.14 4.14 0 0 1-.001 8.281zm-.01-7.028a2.875 2.875 0 1 0 0 5.75 2.875 2.875 0 0 0 0-5.75zM6.241 6.683a3.172 3.172 0 1 1 0-6.344 3.172 3.172 0 0 1 0 6.344z"/>
</svg>
