<svg xmlns="http://www.w3.org/2000/svg" width="28" height="43">
    <path fill="#1453B1" fill-rule="evenodd" d="M22.135 26.503c1.719.101 2.022 1.416 2.022 1.416l2.881 7.279c.405 1.87-1.061 2.528-1.061 2.528-1.517.96-2.578-1.416-2.578-1.416l-2.376-5.864h-5.816a7.59 7.59 0 0 0-5.302-4.033 3.737 3.737 0 0 1-.141-.969v-6.036a3.786 3.786 0 0 1 3.786-3.786 3.76 3.76 0 0 1 1.482.313 1.68 1.68 0 0 1 .961-.301s1.735-.745 3.492-2.592c1.625-1.707 1.159-5.294 1.159-5.294.06-.362.461-.915.863-1.297-.08-.023-.163-.038-.24-.067a3.276 3.276 0 0 1-1.01-.602l-.097-.085.008-.01c-.023-.023-.054-.036-.077-.059a3.29 3.29 0 0 1-.965-2.331c0-.91.369-1.734.965-2.331.023-.023.051-.04.075-.062L20.16.896l.097-.084c.054-.047.118-.083.175-.127.074-.057.147-.114.226-.165.095-.06.196-.11.297-.16.083-.042.163-.086.25-.121.021-.008.04-.022.062-.03.1-.037.207-.058.312-.086.071-.019.14-.045.213-.059.205-.04.414-.063.63-.063.215 0 .425.023.629.063.074.014.142.04.214.059.105.028.212.049.312.086.022.008.041.022.062.03.087.035.167.079.25.121.101.05.202.1.296.16.08.051.152.108.227.165.057.044.12.079.175.127l.097.084-.006.008c.023.022.052.039.075.062a3.29 3.29 0 0 1 .965 2.331 3.29 3.29 0 0 1-.965 2.331c-.023.023-.05.042-.075.062l.006.007-.097.085a3.288 3.288 0 0 1-1.01.602c-.11.042-.227.065-.342.095l-.014.005c.365.078.738.269.867.825.334 1.436-.508 4.684-1.148 6.504-.648 1.842-4.29 4.501-4.622 4.501l-.984.299.201 8.042 4.6-.152zM20.367 5.438a.106.106 0 0 0 .011.009 3.25 3.25 0 0 1 .873-.737 2.431 2.431 0 0 1 1.034-.296v-.93h-2.77c.035.761.347 1.45.852 1.954zM22.285.414a2.885 2.885 0 0 0-.398.04c-.056.011-.109.031-.163.045-.118.03-.234.064-.346.107a2.955 2.955 0 0 0-.696.396l-.042.034c.219.24.465.454.743.607.278.154.584.24.902.262V.414zm-.975 1.555a3.223 3.223 0 0 1-.885-.755c-.019.017-.041.03-.058.048a2.934 2.934 0 0 0-.844 1.898h2.762v-.907a2.386 2.386 0 0 1-.975-.284zm2.918-.967a2.941 2.941 0 0 0-.697-.396 3.004 3.004 0 0 0-.345-.107c-.055-.014-.107-.034-.163-.045a3.255 3.255 0 0 0-.434-.044v1.492c.307-.027.603-.11.872-.259.29-.16.547-.383.772-.637l-.005-.004zm.315.26c-.018-.018-.04-.031-.058-.048-.253.3-.548.568-.886.755-.31.172-.653.267-1.01.29v.901h2.797a2.933 2.933 0 0 0-.843-1.898zm-1.954 5.027c.147-.007.293-.016.434-.043.056-.011.108-.031.163-.045.118-.03.234-.064.345-.107.252-.099.484-.235.697-.396.02-.015.038-.032.058-.048a2.947 2.947 0 0 0-.816-.684 2.112 2.112 0 0 0-.881-.256v1.579zm0-1.872c.355.028.695.122 1.004.293.344.19.644.462.902.768.016-.014.033-.025.048-.04a2.942 2.942 0 0 0 .851-1.954h-2.805v.933zm-.803 1.801c.213-.154.392-.215.499-.145V4.716a2.105 2.105 0 0 0-.846.25l-.815.685.058.047c.212.161.445.297.696.396a3.132 3.132 0 0 0 .408.124zm-4.53 12.419l.004.014.018-.021-.022.007zm-3.664-3.518a4.64 4.64 0 1 1 0-9.278 4.64 4.64 0 0 1 0 9.278zm0-7.898a3.26 3.26 0 1 0 3.261 3.259 3.26 3.26 0 0 0-3.261-3.259zm1.621 27.347c0 4.182-3.397 7.572-7.587 7.572-4.19 0-7.587-3.39-7.587-7.572 0-4.183 3.397-7.573 7.587-7.573 4.19 0 7.587 3.39 7.587 7.573z"/>
</svg>
