<svg xmlns="http://www.w3.org/2000/svg" width="29" height="43">
    <path fill="#1453B1" fill-rule="evenodd" d="M28.88 18.557c-.14.846-.606 1.482-1.443 2.626a58.21 58.21 0 0 0-1.486 2.1l-3.07 4.575 4.155 10.281a2.75 2.75 0 0 1-.022 2.107 2.745 2.745 0 0 1-1.504 1.479l-1.418.573h-.001c-.7.283-1.453.254-2.102-.021a2.755 2.755 0 0 1-1.483-1.504l-4.152-10.278-5.382-1.157a57.452 57.452 0 0 0-2.529-.48c-1.396-.24-2.173-.374-2.861-.886-.849-.631-1.238-1.599-2.114-3.779l-.283-.705-1.017-2.516-1.008-2.495C-1.167 12.718.505 7.749 3.899 4.494a14.388 14.388 0 0 1 4.565-2.933A14.37 14.37 0 0 1 13.783.503C18.484.486 23.138 2.9 25.466 8.662l1.493 3.696.532 1.316.285.7c.884 2.175 1.277 3.14 1.104 4.183zm-6.752 21.566a1.014 1.014 0 0 0 1.313.554h.001l1.418-.573c.254-.103.444-.303.546-.542.101-.238.112-.515.008-.772l-3.974-9.837-3.288 1.329 3.976 9.841zm5.493-22.293l-.455.184-20.734 8.377-.448.181.65 1.622 2.468-.997 16.708-6.751a56.062 56.062 0 0 0 .002 0l2.459-.994-.65-1.622zM6.792 33.184a4.36 4.36 0 0 1 3.348.031 4.36 4.36 0 0 1 2.347 2.39v.001a4.354 4.354 0 0 1-.03 3.347 4.36 4.36 0 0 1-2.391 2.348 4.365 4.365 0 0 1-3.348-.03 4.366 4.366 0 0 1-2.347-2.391 4.36 4.36 0 0 1 .03-3.348 4.367 4.367 0 0 1 2.391-2.348zm-.8 5.046c.272.671.791 1.17 1.411 1.433a2.622 2.622 0 0 0 2.013.016 2.615 2.615 0 0 0 1.433-1.41 2.622 2.622 0 0 0 .017-2.013v-.001a2.623 2.623 0 0 0-1.41-1.432 2.62 2.62 0 0 0-2.014-.017c-.671.271-1.17.79-1.433 1.41a2.625 2.625 0 0 0-.017 2.014z"/>
</svg>
