<svg xmlns="http://www.w3.org/2000/svg" width="43" height="43">
    <path fill="#1453B1" fill-rule="evenodd" d="M42.099 21.783a20.759 20.759 0 0 1-1.12 6.471c-.013.079-.044.152-.074.228a20.492 20.492 0 0 1-4.527 7.324 20.506 20.506 0 0 1-14.474 6.33l-.096.001-.008.001-.004-.001a20.492 20.492 0 0 1-14.602-5.759 20.5 20.5 0 0 1-6.33-14.474 20.502 20.502 0 0 1 5.759-14.71A20.503 20.503 0 0 1 21.096.864a20.51 20.51 0 0 1 14.71 5.758 20.446 20.446 0 0 1 3.93 5.242c.036.068.076.131.098.205a20.659 20.659 0 0 1 2.274 9.197c.04.169.03.344-.009.517zm-7.38 12.429a18.205 18.205 0 0 0 3.721-5.726 24.677 24.677 0 0 0-1.765-1.095c-2.112 4.797-6.068 8.737-10.012 11.696a18.198 18.198 0 0 0 8.056-4.875zm-13.23 5.614c4.7-2.903 10.563-7.494 13.14-13.443a24.62 24.62 0 0 0-3.685-1.294c-3.197 5.707-8.374 10.318-15.431 13.735 1.894.652 3.902.996 5.976 1.002zM8.788 34.72a18.371 18.371 0 0 0 3.922 2.866c7.281-3.163 12.598-7.535 15.864-13.001-.055-.009-.11-.022-.165-.031l-4.497-.685c-.01.012-.014.027-.025.039l-3.558 3.7a26.924 26.924 0 0 1-2.281 2.103c-.006.005-.009.012-.015.016l-.007.004a26.727 26.727 0 0 1-9.262 4.964l.024.025zM3.164 21.859a18.187 18.187 0 0 0 3.889 10.91 24.378 24.378 0 0 0 2.088-.647c-2.647-4.41-4.563-9.519-5.515-14.662a18.405 18.405 0 0 0-.462 4.399zM8.281 8.788a18.405 18.405 0 0 0-2.945 4.063c.467 6.333 2.623 12.951 5.958 18.39a24.514 24.514 0 0 0 4.567-2.734c-3.714-5.822-6.157-13.772-6.428-20.806-.395.347-.783.704-1.152 1.087zm9.359 18.226c.351-.324.698-.653 1.03-.999l3.479-3.618-1.867-3.916a27.332 27.332 0 0 1-.887-2.088l-.009-.029a26.592 26.592 0 0 1-1.489-12.836 18.264 18.264 0 0 0-6.187 2.481c-.092 6.808 2.279 15.136 5.93 21.005zM34.212 8.28a18.212 18.212 0 0 0-13.071-5.116c-.293.005-.583.027-.873.047a24.488 24.488 0 0 0-.285 4.071c4.198-.058 10.11.622 15.704 2.621a18.25 18.25 0 0 0-1.475-1.623zm3.659 4.994c-5.689-2.668-12.732-3.751-17.752-3.689a24.27 24.27 0 0 0 1.191 5.298c7.267.406 13.316 1.912 18.383 4.594a18.424 18.424 0 0 0-1.822-6.203zm-15.616 3.978c.037.079.065.16.103.239l1.962 4.113 4.436.677a26.974 26.974 0 0 1 10.454 3.947c.353-1.331.521-2.694.571-4.059-4.754-2.791-10.513-4.405-17.526-4.917z"/>
</svg>
