<svg xmlns="http://www.w3.org/2000/svg" width="14" height="18">
    <path fill="#4ba9dd" fill-rule="evenodd" d="M13.953.82a.818.818 0 0 0-.818-.818H.865A.818.818 0 0 0 .047.82v16.36c0 .452.366.818.818.818h12.27a.818.818 0 0 0 .818-.818V.82zm-1.636 15.542H1.683V1.638h10.634v14.724zm-8.698-5.419c0-.396.321-.716.716-.716h2.417a.715.715 0 1 1 0 1.432H4.335a.717.717 0 0 1-.716-.716zm.114-3.272c0-.396.32-.716.716-.716h4.867a.715.715 0 1 1 0 1.431H4.449a.715.715 0 0 1-.716-.715zm0-3.068c0-.395.32-.716.716-.716h4.867a.716.716 0 1 1 0 1.432H4.449a.715.715 0 0 1-.716-.716zm6.063 5.888a.723.723 0 0 1 0 1.012.719.719 0 0 1-1.223-.505c0-.19.075-.374.21-.507a.743.743 0 0 1 1.013 0z"/>
</svg>
