<svg xmlns="http://www.w3.org/2000/svg" width="19" height="12">
    <path fill-rule="evenodd" d="M19.013.809c-.001-.031-.006-.061-.01-.092-.003-.024-.005-.048-.01-.071a.686.686 0 0 0-.024-.077c-.008-.026-.016-.053-.027-.078-.009-.021-.022-.041-.034-.062-.015-.027-.029-.055-.047-.08l-.01-.015c-.011-.015-.025-.027-.037-.041a.735.735 0 0 0-.059-.065c-.02-.019-.041-.035-.063-.052a.726.726 0 0 0-.135-.085c-.024-.012-.047-.024-.071-.033a.741.741 0 0 0-.08-.025.614.614 0 0 0-.166-.028C18.223.004 18.206 0 18.188 0H.827C.808 0 .791.004.773.005c-.03.002-.06.004-.09.01C.657.019.633.026.608.033a1.031 1.031 0 0 0-.079.024.775.775 0 0 0-.071.034.623.623 0 0 0-.072.039C.363.144.343.16.322.176.301.193.28.209.26.228A.616.616 0 0 0 .2.293C.188.307.174.319.163.334L.154.349C.136.374.121.402.106.429.095.45.082.47.072.491.061.516.054.542.045.568.037.594.027.62.021.646.016.669.014.693.011.717.007.748.002.778.002.809L0 .827v9.507c0 .456.37.827.827.827h17.361a.827.827 0 0 0 .826-.827V.827l-.001-.018zm-3.325.844l-6.181 4.59-6.18-4.59h12.361zM1.653 9.507V2.47l7.361 5.466a.826.826 0 0 0 .986 0l7.361-5.466v7.037H1.653z"/>
</svg>
