<?xml version="1.0" encoding="UTF-8"?><svg xmlns="http://www.w3.org/2000/svg" xmlns:xlink="http://www.w3.org/1999/xlink" version="1.1" id="Layer_1" x="0px" y="0px" viewBox="0 0 48 48" xml:space="preserve"><path d="M27 38C9.065 38 5.218 33.154 3.575 31.084A2.474 2.474 0 0 1 3 29.5C3 28.122 4.121 27 5.5 27c.865 0 3.5 0 3.5-4.917V21.5C9 12.402 17.075 5 27 5s18 7.402 18 16.5S36.925 38 27 38z" fill="#37474F"/><path d="M27 36c8.822 0 16-6.505 16-14.5S35.822 7 27 7s-16 6.505-16 14.5v.583C11 28.326 7.153 29 5.5 29a.5.5 0 0 0-.5.5.48.48 0 0 0 .122.317C6.604 31.684 10.031 36 27 36z" fill="#ECEFF1"/><circle cx="32" cy="18" r="2" fill="#37474F"/><circle cx="22" cy="18" r="2" fill="#37474F"/><path d="M33 23.5s-.75 4.5-6 4.5-6-4.5-6-4.5" fill="none" stroke="#37474F" stroke-width="2" stroke-linecap="round" stroke-linejoin="round" stroke-miterlimit="10"/><circle cx="16.5" cy="38.5" r="4.5" fill="#37474F"/><circle cx="16.5" cy="38.5" r="1.5" fill="#607D8B"/><circle cx="32.5" cy="38.5" r="4.5" fill="#37474F"/><circle cx="32.5" cy="38.5" r="1.5" fill="#607D8B"/><metadata><rdf:RDF xmlns:rdf="http://www.w3.org/1999/02/22-rdf-syntax-ns#" xmlns:rdfs="http://www.w3.org/2000/01/rdf-schema#" xmlns:dc="http://purl.org/dc/elements/1.1/"><rdf:Description about="https://iconscout.com/legal#licenses" dc:title="waze" dc:description="waze" dc:publisher="Iconscout" dc:date="2017-12-15" dc:format="image/svg+xml" dc:language="en"><dc:creator><rdf:Bag><rdf:li>Icons8</rdf:li></rdf:Bag></dc:creator></rdf:Description></rdf:RDF></metadata></svg>