<svg xmlns="http://www.w3.org/2000/svg" width="40" height="24">
    <path fill="#7DA5E3" fill-rule="evenodd" d="M31.098 2.914l-8.241 17.893c-.728 1.836-1.993 2.93-3.397 2.93-1.138 0-2.14-.583-2.679-1.56-.604-1.096-.54-2.489.169-3.636L27.737 1.084a1.906 1.906 0 0 1 2.535-.677 1.934 1.934 0 0 1 .826 2.507zm2.886 5.207a1.693 1.693 0 0 0-2.404-.102 1.723 1.723 0 0 0-.101 2.422c2.822 3.09 4.376 7.128 4.376 11.368 0 .947.762 1.714 1.702 1.714.939 0 1.701-.767 1.701-1.714 0-5.102-1.873-9.963-5.274-13.688zM21.062 5.253a1.698 1.698 0 0 0 1.84-1.561 1.71 1.71 0 0 0-1.55-1.854 19.535 19.535 0 0 0-1.66-.071C8.902 1.767.125 10.758.125 21.809c0 .947.762 1.714 1.701 1.714.94 0 1.702-.767 1.702-1.714 0-9.161 7.251-16.615 16.164-16.615.456 0 .917.02 1.37.059z"/>
</svg>
