<svg xmlns="http://www.w3.org/2000/svg" width="39" height="43">
    <path fill="#7da5e3" fill-rule="evenodd" d="M37.928 3.926L34.558.499a1.403 1.403 0 0 0-1.001-.42h-.001c-.377 0-.738.152-1.002.421L12.911 20.509a1.42 1.42 0 0 0-.309.477l-2.186 5.612a1.415 1.415 0 0 0 1.311 1.927 1.4 1.4 0 0 0 .519-.1l5.537-2.204c.182-.073.346-.182.483-.321L37.928 5.91a1.416 1.416 0 0 0 0-1.984zM16.47 23.704l-2.254.898.903-2.317L33.557 3.503l1.391 1.414L16.47 23.704zm14.357-1.688v19.022c0 1.04-.92 1.883-1.956 1.883H2.207a1.88 1.88 0 0 1-1.876-1.883V5.173c0-1.04.84-1.799 1.876-1.799h19.506a1.88 1.88 0 0 1 1.876 1.883 1.88 1.88 0 0 1-1.876 1.883H4.084v32.015h22.989V22.016c0-1.04.841-1.884 1.877-1.884s1.877.844 1.877 1.884z"/>
</svg>
