<?xml version="1.0" encoding="UTF-8" standalone="no"?>
<svg
   xmlns:dc="http://purl.org/dc/elements/1.1/"
   xmlns:cc="http://creativecommons.org/ns#"
   xmlns:rdf="http://www.w3.org/1999/02/22-rdf-syntax-ns#"
   xmlns:svg="http://www.w3.org/2000/svg"
   xmlns="http://www.w3.org/2000/svg"
   xmlns:sodipodi="http://sodipodi.sourceforge.net/DTD/sodipodi-0.dtd"
   xmlns:inkscape="http://www.inkscape.org/namespaces/inkscape"
   fill="#7da5e3"
   viewBox="0 0 24 24"
   width="48px"
   height="48px"
   version="1.1"
   id="svg4"
   sodipodi:docname="edit-white.svg"
   inkscape:version="0.92.4 (5da689c313, 2019-01-14)">
  <metadata
     id="metadata10">
    <rdf:RDF>
      <cc:Work
         rdf:about="">
        <dc:format>image/svg+xml</dc:format>
        <dc:type
           rdf:resource="http://purl.org/dc/dcmitype/StillImage" />
      </cc:Work>
    </rdf:RDF>
  </metadata>
  <defs
     id="defs8" />
  <sodipodi:namedview
     pagecolor="#ffffff"
     bordercolor="#666666"
     borderopacity="1"
     objecttolerance="10"
     gridtolerance="10"
     guidetolerance="10"
     inkscape:pageopacity="0"
     inkscape:pageshadow="2"
     inkscape:window-width="1920"
     inkscape:window-height="1017"
     id="namedview6"
     showgrid="false"
     inkscape:zoom="4.9166667"
     inkscape:cx="24"
     inkscape:cy="24"
     inkscape:window-x="-8"
     inkscape:window-y="-8"
     inkscape:window-maximized="1"
     inkscape:current-layer="svg4" />
  <path
     d="M 18.414062 2 C 18.158062 2 17.902031 2.0979687 17.707031 2.2929688 L 15.707031 4.2929688 L 14.292969 5.7070312 L 3 17 L 3 21 L 7 21 L 21.707031 6.2929688 C 22.098031 5.9019687 22.098031 5.2689063 21.707031 4.8789062 L 19.121094 2.2929688 C 18.926094 2.0979687 18.670063 2 18.414062 2 z M 18.414062 4.4140625 L 19.585938 5.5859375 L 18.292969 6.8789062 L 17.121094 5.7070312 L 18.414062 4.4140625 z M 15.707031 7.1210938 L 16.878906 8.2929688 L 6.171875 19 L 5 19 L 5 17.828125 L 15.707031 7.1210938 z"
     id="path2" />
  <path
     style="fill:#ffffff;fill-opacity:1;stroke-width:0.20338982"
     d="m 8.0548869,41.949871 c 1.1525606,-0.03632 2.9830691,-0.03617 4.0677971,3.27e-4 1.084727,0.0365 0.141723,0.06621 -2.095565,0.06603 -2.2372885,-1.8e-4 -3.1247928,-0.03004 -1.9722321,-0.06636 z"
     id="path821"
     inkscape:connector-curvature="0"
     transform="scale(0.5)" />
  <path
     style="fill:#ffffff;fill-opacity:1;stroke-width:0.20338982"
     d="M 6.0610169,37.981182 V 34.06406 L 21.064243,19.065928 C 37.166705,2.9689346 36.395685,3.6487862 37.749083,4.3539647 c 0.302073,0.1573924 1.807697,1.5663368 3.345832,3.1309873 2.481655,2.524434 2.79661,2.922321 2.79661,3.532983 0,0.37849 -0.149544,0.914461 -0.332322,1.191047 -0.182779,0.276585 -6.886776,7.069832 -14.897777,15.096103 L 14.095975,41.898305 H 10.078496 6.0610169 Z M 23.094196,27.407506 C 28.939507,21.56299 33.722034,16.686135 33.722034,16.57005 c 0,-0.116085 -0.504799,-0.709594 -1.121778,-1.318908 L 31.478477,14.143299 20.701951,24.918388 9.9254237,35.693475 v 1.170212 1.170211 h 1.2704673 1.270466 z M 37.992974,12.508723 39.303012,11.186937 38.094535,9.9657175 36.88606,8.7444984 l -1.378402,1.3678396 -1.378403,1.367839 1.162904,1.175166 c 0.639598,0.646341 1.214176,1.175165 1.27684,1.175165 0.06267,0 0.703455,-0.594803 1.423975,-1.321785 z"
     id="path823"
     inkscape:connector-curvature="0"
     transform="scale(0.5)" />
</svg>
