<svg xmlns="http://www.w3.org/2000/svg" width="37" height="39">
    <path fill="#7da5e3" fill-rule="evenodd" d="M35.153.022a1.657 1.657 0 0 0-1.86.982c-.445 1.065-4.82 5.612-8.611 5.773-2.133.096-4.138-1.393-6.261-2.963C15.735 1.825 12.692-.428 8.798.318 3.073 1.415.388 6.581.276 6.801a1.658 1.658 0 0 0-.139 1.114L1.8 15.309l4.83 21.467a1.654 1.654 0 0 0 1.976 1.252 1.656 1.656 0 0 0 1.25-1.979L7.035 23.512c.737-1.152 2.848-3.995 6.163-4.754 1.984-.455 3.56.072 5.386.681 2.037.68 4.346 1.451 7.318.77 6.215-1.423 10.463-8.876 10.57-18.547a1.656 1.656 0 0 0-1.319-1.64zm-9.988 16.959c-2.068.474-3.675-.062-5.536-.684-2.007-.67-4.282-1.428-7.168-.767-2.796.64-4.917 2.297-6.359 3.831l-.171-.761L3.507 7.825C4.195 6.753 6.146 4.197 9.42 3.57c2.47-.473 4.585 1.093 7.035 2.906 2.375 1.758 5.067 3.745 8.368 3.61 2.775-.119 5.639-1.736 7.834-3.548-.987 4.974-3.428 9.513-7.492 10.443z"/>
</svg>
