<?xml version="1.0" encoding="UTF-8" standalone="no"?>
<svg
   xmlns:dc="http://purl.org/dc/elements/1.1/"
   xmlns:cc="http://creativecommons.org/ns#"
   xmlns:rdf="http://www.w3.org/1999/02/22-rdf-syntax-ns#"
   xmlns:svg="http://www.w3.org/2000/svg"
   xmlns="http://www.w3.org/2000/svg"
   xmlns:sodipodi="http://sodipodi.sourceforge.net/DTD/sodipodi-0.dtd"
   xmlns:inkscape="http://www.inkscape.org/namespaces/inkscape"
   width="19"
   height="17"
   version="1.1"
   id="svg4"
   sodipodi:docname="icon-championships.svg"
   inkscape:version="0.92.4 (5da689c313, 2019-01-14)">
  <metadata
     id="metadata10">
    <rdf:RDF>
      <cc:Work
         rdf:about="">
        <dc:format>image/svg+xml</dc:format>
        <dc:type
           rdf:resource="http://purl.org/dc/dcmitype/StillImage" />
        <dc:title></dc:title>
      </cc:Work>
    </rdf:RDF>
  </metadata>
  <defs
     id="defs8" />
  <sodipodi:namedview
     pagecolor="#ffffff"
     bordercolor="#666666"
     borderopacity="1"
     objecttolerance="10"
     gridtolerance="10"
     guidetolerance="10"
     inkscape:pageopacity="0"
     inkscape:pageshadow="2"
     inkscape:window-width="1920"
     inkscape:window-height="1017"
     id="namedview6"
     showgrid="false"
     inkscape:zoom="13.882353"
     inkscape:cx="9.5"
     inkscape:cy="8.5"
     inkscape:window-x="-8"
     inkscape:window-y="-8"
     inkscape:window-maximized="1"
     inkscape:current-layer="svg4" />
  <path
     fill="#176AE6"
     fill-rule="evenodd"
     d="M11.277 5.125V3.374a.689.689 0 0 1 1.379 0v1.751a.689.689 0 0 1-1.379 0zm.656 2.678c.207 0 .41-.085.556-.23a.795.795 0 0 0 .232-.556.794.794 0 0 0-.232-.557.784.784 0 0 0-.556-.23.783.783 0 0 0-.788.787c0 .206.084.408.231.556.146.145.348.23.557.23zm5.204-.741a3.737 3.737 0 0 1-2.187 1.113c-.431 2.628-2.294 3.978-4.46 4.245v2.892h1.69a.787.787 0 1 1 0 1.573H7.231a.786.786 0 1 1 0-1.573h1.683V12.42c-2.166-.267-4.025-1.62-4.456-4.247a3.722 3.722 0 0 1-2.192-1.111C.657 5.398.738 2.54.743 2.419a.697.697 0 0 1 .688-.674h2.953v-.59c0-.434.337-.787.773-.787h9.098c.435 0 .764.353.764.787v.59h2.953c.372 0 .676.304.69.674.004.121.084 2.979-1.525 4.643zM3.268 6.104c.31.319.722.542 1.116.654V3.121H2.148c.068.787.314 2.152 1.12 2.983zm10.176-4.163H5.959v5.101c0 2.842 1.924 3.855 3.743 3.855 1.818 0 3.742-1.013 3.742-3.855V1.941zM16.135 6.1c.761-.787 1.047-1.996 1.125-2.979h-2.241v3.636a2.574 2.574 0 0 0 1.116-.657z"
     id="path2"
     style="fill:#7da5e3;fill-opacity:1" />
</svg>
