<svg xmlns="http://www.w3.org/2000/svg" width="42" height="31">
    <path fill="#4ba9dd" fill-rule="evenodd" d="M40.912 9.073L21.749.445a1.84 1.84 0 0 0-1.51 0L1.076 9.073A1.812 1.812 0 0 0 .005 10.68c-.016.695.453 1.338 1.078 1.654l1.655.797v6.393c0 .625.512 1.131 1.141 1.131.631 0 1.142-.506 1.142-1.131v-5.237l2.738 1.464v7.756c0 .307.082.608.252.865.174.264 4.338 6.459 12.732 6.459 8.63 0 12.611-6.229 12.775-6.494.155-.25.255-.537.255-.83v-7.499l7.234-3.674a1.799 1.799 0 0 0 .985-1.654 1.819 1.819 0 0 0-1.08-1.607zM30.578 23.01c-.913 1.117-4.002 4.653-9.812 4.653-5.66 0-8.9-3.524-9.813-4.671v-5.623l9.218 4.673c.261.132.542.198.827.198.285 0 .586-.066.847-.198l8.733-4.416v5.384zm-9.584-4.613L6.032 10.818l14.962-6.736 14.962 6.736-14.962 7.579zM5.006 22.178c.337.339.533.805.533 1.281 0 .475-.196.941-.533 1.28-.338.335-.813.53-1.292.53-.479 0-.948-.195-1.291-.53a1.827 1.827 0 0 1-.533-1.28c0-.476.195-.942.533-1.281.343-.335.812-.53 1.291-.53.479 0 .949.195 1.292.53z"/>
</svg>
