<?xml version="1.0" encoding="UTF-8" standalone="no"?>
<svg
   xmlns:dc="http://purl.org/dc/elements/1.1/"
   xmlns:cc="http://creativecommons.org/ns#"
   xmlns:rdf="http://www.w3.org/1999/02/22-rdf-syntax-ns#"
   xmlns:svg="http://www.w3.org/2000/svg"
   xmlns="http://www.w3.org/2000/svg"
   xmlns:sodipodi="http://sodipodi.sourceforge.net/DTD/sodipodi-0.dtd"
   xmlns:inkscape="http://www.inkscape.org/namespaces/inkscape"
   fill="#1453B1"
   viewBox="0 0 50 50"
   width="50px"
   height="50px"
   version="1.1"
   id="svg4"
   sodipodi:docname="icon-trash-red.svg"
   inkscape:version="0.92.4 (5da689c313, 2019-01-14)">
  <metadata
     id="metadata10">
    <rdf:RDF>
      <cc:Work
         rdf:about="">
        <dc:format>image/svg+xml</dc:format>
        <dc:type
           rdf:resource="http://purl.org/dc/dcmitype/StillImage" />
        <dc:title></dc:title>
      </cc:Work>
    </rdf:RDF>
  </metadata>
  <defs
     id="defs8" />
  <sodipodi:namedview
     pagecolor="#ffffff"
     bordercolor="#666666"
     borderopacity="1"
     objecttolerance="10"
     gridtolerance="10"
     guidetolerance="10"
     inkscape:pageopacity="0"
     inkscape:pageshadow="2"
     inkscape:window-width="1920"
     inkscape:window-height="1017"
     id="namedview6"
     showgrid="false"
     inkscape:zoom="4.72"
     inkscape:cx="25"
     inkscape:cy="25"
     inkscape:window-x="-8"
     inkscape:window-y="-8"
     inkscape:window-maximized="1"
     inkscape:current-layer="svg4" />
  <path
     d="M 21 0 C 19.355469 0 18 1.355469 18 3 L 18 5 L 10.1875 5 C 10.0625 4.976563 9.9375 4.976563 9.8125 5 L 8 5 C 7.96875 5 7.9375 5 7.90625 5 C 7.355469 5.027344 6.925781 5.496094 6.953125 6.046875 C 6.980469 6.597656 7.449219 7.027344 8 7 L 9.09375 7 L 12.6875 47.5 C 12.8125 48.898438 14.003906 50 15.40625 50 L 34.59375 50 C 35.996094 50 37.1875 48.898438 37.3125 47.5 L 40.90625 7 L 42 7 C 42.359375 7.003906 42.695313 6.816406 42.878906 6.503906 C 43.058594 6.191406 43.058594 5.808594 42.878906 5.496094 C 42.695313 5.183594 42.359375 4.996094 42 5 L 32 5 L 32 3 C 32 1.355469 30.644531 0 29 0 Z M 21 2 L 29 2 C 29.5625 2 30 2.4375 30 3 L 30 5 L 20 5 L 20 3 C 20 2.4375 20.4375 2 21 2 Z M 11.09375 7 L 38.90625 7 L 35.3125 47.34375 C 35.28125 47.691406 34.910156 48 34.59375 48 L 15.40625 48 C 15.089844 48 14.71875 47.691406 14.6875 47.34375 Z M 18.90625 9.96875 C 18.863281 9.976563 18.820313 9.988281 18.78125 10 C 18.316406 10.105469 17.988281 10.523438 18 11 L 18 44 C 17.996094 44.359375 18.183594 44.695313 18.496094 44.878906 C 18.808594 45.058594 19.191406 45.058594 19.503906 44.878906 C 19.816406 44.695313 20.003906 44.359375 20 44 L 20 11 C 20.011719 10.710938 19.894531 10.433594 19.6875 10.238281 C 19.476563 10.039063 19.191406 9.941406 18.90625 9.96875 Z M 24.90625 9.96875 C 24.863281 9.976563 24.820313 9.988281 24.78125 10 C 24.316406 10.105469 23.988281 10.523438 24 11 L 24 44 C 23.996094 44.359375 24.183594 44.695313 24.496094 44.878906 C 24.808594 45.058594 25.191406 45.058594 25.503906 44.878906 C 25.816406 44.695313 26.003906 44.359375 26 44 L 26 11 C 26.011719 10.710938 25.894531 10.433594 25.6875 10.238281 C 25.476563 10.039063 25.191406 9.941406 24.90625 9.96875 Z M 30.90625 9.96875 C 30.863281 9.976563 30.820313 9.988281 30.78125 10 C 30.316406 10.105469 29.988281 10.523438 30 11 L 30 44 C 29.996094 44.359375 30.183594 44.695313 30.496094 44.878906 C 30.808594 45.058594 31.191406 45.058594 31.503906 44.878906 C 31.816406 44.695313 32.003906 44.359375 32 44 L 32 11 C 32.011719 10.710938 31.894531 10.433594 31.6875 10.238281 C 31.476563 10.039063 31.191406 9.941406 30.90625 9.96875 Z"
     id="path2" />
  <path
     style="fill:#ff0000;fill-opacity:1;stroke-width:0.21186441"
     d="m 14.646804,49.771515 c -0.844416,-0.249496 -1.677031,-1.223036 -1.830093,-2.139848 -0.06462,-0.387036 -0.90745,-9.6894 -1.872965,-20.671921 L 9.1882633,6.9915254 H 8.4924368 c -0.4215411,0 -0.8689766,-0.17315 -1.1350854,-0.4392589 C 6.9619566,6.1568718 6.9486559,6.0669561 7.224157,5.6518428 7.5232285,5.2012146 7.6518619,5.1893847 12.854094,5.1340739 l 5.323872,-0.056604 V 3.4671996 c 0,-1.5807926 0.01467,-1.6249437 0.801552,-2.4118223 1.010049,-1.01004938 1.736208,-1.11692606 6.932451,-1.02032419 3.354105,0.06235522 3.898902,0.12183653 4.530171,0.49460791 1.030197,0.60834038 1.507013,1.62955678 1.507013,3.22762668 v 1.3274581 h 5.175544 c 4.422555,0 5.223983,0.048438 5.508475,0.3329298 0.183112,0.1831113 0.33293,0.4637221 0.33293,0.6235797 0,0.4183386 -0.84613,0.9502701 -1.51157,0.9502701 -0.495899,0 -0.585394,0.1030793 -0.689801,0.7944915 -0.06598,0.4369704 -0.894112,9.6133471 -1.840284,20.3919491 -1.161517,13.231752 -1.817892,19.806937 -2.020718,20.24236 -0.165225,0.354695 -0.608718,0.83139 -0.985543,1.059322 -0.651688,0.394189 -1.171258,0.416267 -10.642762,0.452271 -5.688022,0.02162 -10.245334,-0.04716 -10.62862,-0.160404 z m 20.479912,-1.995606 c 0.173966,-0.209615 0.863896,-7.022848 2.032776,-20.074153 0.973184,-10.866262 1.772074,-19.9713535 1.775307,-20.2335357 l 0.0059,-0.4766949 H 24.944646 10.948613 l 0.120195,0.9004238 c 0.06611,0.495233 0.890754,9.6239408 1.832547,20.2860168 0.941794,10.662076 1.810942,19.504767 1.93144,19.650424 0.169562,0.204964 2.458327,0.26483 10.124832,0.26483 8.539913,0 9.942055,-0.04375 10.169089,-0.317311 z M 30.042373,3.7150814 c 0,-1.1373134 -0.06952,-1.40687 -0.409801,-1.5889831 -0.243761,-0.1304568 -2.146976,-0.2193186 -4.6973,-0.2193186 -5.084649,0 -5.062391,-0.00853 -5.062391,1.9396161 v 1.23835 h 5.084746 5.084746 z"
     id="path817"
     inkscape:connector-curvature="0" />
  <path
     style="fill:#ff0000;fill-opacity:1;stroke-width:0.21186441"
     d="M 18.414505,44.627189 C 18.24035,44.417345 18.190158,39.714237 18.229665,27.307273 l 0.05423,-17.031849 0.612605,-0.06993 c 0.347951,-0.03972 0.68978,0.05181 0.791247,0.211865 0.299973,0.473185 0.23243,33.942124 -0.06911,34.24366 -0.338345,0.338345 -0.908557,0.322326 -1.204139,-0.03383 z"
     id="path819"
     inkscape:connector-curvature="0" />
  <path
     style="fill:#ff0000;fill-opacity:1;stroke-width:0.21186441"
     d="m 24.364407,44.661017 c -0.193486,-0.193485 -0.254238,-4.288021 -0.254238,-17.135075 0,-18.2555575 -0.04911,-17.482735 1.100627,-17.319748 l 0.488357,0.06923 0.05423,17.031849 c 0.03951,12.406964 -0.01069,17.110072 -0.18484,17.319916 -0.295582,0.356154 -0.865794,0.372173 -1.204139,0.03383 z"
     id="path821"
     inkscape:connector-curvature="0" />
  <path
     style="fill:#ff0000;fill-opacity:1;stroke-width:0.21186441"
     d="m 30.375303,44.582324 c -0.297061,-0.297059 -0.33293,-2.14139 -0.33293,-17.118644 0,-12.773069 0.06078,-16.84649 0.254237,-17.039951 0.326801,-0.326801 1.071504,-0.326801 1.398305,0 0.33652,0.33652 0.370452,33.454777 0.03492,34.081724 -0.265094,0.495333 -0.900037,0.531367 -1.354531,0.07687 z"
     id="path823"
     inkscape:connector-curvature="0" />
</svg>
