<?xml version="1.0" encoding="UTF-8" standalone="no"?>
<svg
   xmlns:dc="http://purl.org/dc/elements/1.1/"
   xmlns:cc="http://creativecommons.org/ns#"
   xmlns:rdf="http://www.w3.org/1999/02/22-rdf-syntax-ns#"
   xmlns:svg="http://www.w3.org/2000/svg"
   xmlns="http://www.w3.org/2000/svg"
   xmlns:sodipodi="http://sodipodi.sourceforge.net/DTD/sodipodi-0.dtd"
   xmlns:inkscape="http://www.inkscape.org/namespaces/inkscape"
   width="14"
   height="19"
   version="1.1"
   id="svg4"
   sodipodi:docname="icon-players.svg"
   inkscape:version="0.92.4 (5da689c313, 2019-01-14)">
  <metadata
     id="metadata10">
    <rdf:RDF>
      <cc:Work
         rdf:about="">
        <dc:format>image/svg+xml</dc:format>
        <dc:type
           rdf:resource="http://purl.org/dc/dcmitype/StillImage" />
        <dc:title></dc:title>
      </cc:Work>
    </rdf:RDF>
  </metadata>
  <defs
     id="defs8" />
  <sodipodi:namedview
     pagecolor="#ffffff"
     bordercolor="#666666"
     borderopacity="1"
     objecttolerance="10"
     gridtolerance="10"
     guidetolerance="10"
     inkscape:pageopacity="0"
     inkscape:pageshadow="2"
     inkscape:window-width="1920"
     inkscape:window-height="1017"
     id="namedview6"
     showgrid="false"
     inkscape:zoom="12.421053"
     inkscape:cx="7"
     inkscape:cy="9.5"
     inkscape:window-x="-8"
     inkscape:window-y="-8"
     inkscape:window-maximized="1"
     inkscape:current-layer="svg4" />
  <path
     fill="#3B6FBE"
     fill-rule="evenodd"
     d="M13.232 18.918H.268a.255.255 0 0 1-.255-.255V8.318c0-.141.114-.588.255-.588h.466c.422 0 1.265-.344 1.265-.766V.337c0-.141.114-.255.255-.255h2.09c.141 0 .256.114.256.255 0 0 .333.417.333 3.206 0 1.324.827 1.984 2.15 1.984 1.324 0 2.067-.66 2.067-1.984V.337c0-.141.114-.255.255-.255h2.34c.141 0 .256.114.256.255v6.627c0 .422.343.766.765.766h.465c.142 0 .756.114.756.255v10.678c0 .141-.614.255-.755.255zm-12.209-.844h11.953v-.849H1.023v.849zM12.976 8.24h-.21c-.703 0-1.609-.572-1.609-1.276V.592l-1.08.417v2.617c0 1.605-1.472 2.828-3.077 2.828a2.914 2.914 0 0 1-2.911-2.911V.926H2.843v6.038c0 .704-.906 1.276-1.61 1.276h-.21v7.808h11.953V8.24zm-7.21 2.937l-.01.019-.474.556-.161-.161V9.493l.645.242v1.442zm0 0l2.597.333.323.323-.323.239H5.766l-.323-.239.313-.637.01-.011v-.008zm2.436 2.915l.242.812H5.857c-.215-.054-.35-.355-.403-.57l.645-.242h2.103zm.161-1.695l.485-.484.161.162v2.259a.52.52 0 0 1-.403.403l-.243-.645v-1.695zm0-1.462V9.574l.243-.646a.52.52 0 0 1 .403.404v2.259l-.161.161-.485-.817zM5.774 9.574l-.645-.242a.518.518 0 0 1 .403-.404h2.912l-.242.646H5.774z"
     id="path2"
     style="fill:#7da5e3;fill-opacity:1" />
</svg>
