<svg xmlns="http://www.w3.org/2000/svg" width="16" height="16" viewBox="0 0 16 16"><g transform="translate(0 -1036.362)"><path fill="#c2e4f8" d="m 6.75,1036.8622 -0.21,1.8571 a 5.8333193,5.8333193 0 0 0 -1.4958,0.6218 l -1.4632,-1.1653 -1.7675,1.7675 1.1653,1.4632 a 5.8333193,5.8333193 0 0 0 -0.6201,1.4959 l -1.8587,0.21 0,2.4999 1.8571,0.21 a 5.8333193,5.8333193 0 0 0 0.6217,1.4957 l -1.1653,1.4631 1.7675,1.7677 1.4632,-1.1653 a 5.8333193,5.8333193 0 0 0 1.4958,0.6201 l 0.21,1.8586 2.5,0 0.2099,-1.8571 a 5.8333193,5.8333193 0 0 0 1.4958,-0.6216 l 1.4632,1.1653 1.7676,-1.7677 -1.1654,-1.4631 a 5.8333193,5.8333193 0 0 0 0.6201,-1.4957 l 1.8588,-0.21 0,-2.4999 -1.8571,-0.21 a 5.8333193,5.8333193 0 0 0 -0.6218,-1.4959 l 1.1654,-1.4632 -1.7676,-1.7675 -1.4632,1.1653 a 5.8333193,5.8333193 0 0 0 -1.4958,-0.6201 l -0.2099,-1.8588 -2.5,0 z"/><path fill="#fff" d="m 11.500038,1044.3622 a 3.4999957,3.4999957 0 0 1 -3.499996,3.5 3.4999957,3.4999957 0 0 1 -3.4999957,-3.5 3.4999957,3.4999957 0 0 1 3.4999957,-3.5 3.4999957,3.4999957 0 0 1 3.499996,3.5 z"/><path fill="#249fe6" style="line-height:normal;text-indent:0;text-align:start;text-decoration-line:none;text-decoration-style:solid;text-decoration-color:#000;text-transform:none;block-progression:tb;isolation:auto;mix-blend-mode:normal" d="m 6.75,1036.3613 a 0.50005,0.50005 0 0 0 -0.4960938,0.4453 l -0.1777343,1.5704 c -0.3262061,0.1054 -0.6423889,0.2358 -0.9472657,0.3925 l -1.2363281,-0.9843 a 0.50005,0.50005 0 0 0 -0.6660156,0.037 l -1.7675781,1.7675 a 0.50005,0.50005 0 0 0 -0.037109,0.6641 l 0.9863281,1.2383 c -0.1564136,0.3049 -0.2874753,0.6211 -0.3925781,0.9473 l -1.57226562,0.1757 A 0.50005,0.50005 0 0 0 0,1043.1133 l 0,2.498 a 0.50005,0.50005 0 0 0 0.44335938,0.4981 l 1.57031252,0.1758 c 0.1054957,0.3266 0.2375788,0.642 0.3945312,0.9472 l -0.9863281,1.2364 a 0.50005,0.50005 0 0 0 0.037109,0.666 l 1.7675781,1.7675 a 0.50005,0.50005 0 0 0 0.6660156,0.037 l 1.2363281,-0.9844 c 0.3051892,0.1566 0.620765,0.2873 0.9472657,0.3926 l 0.1777343,1.5703 A 0.50005,0.50005 0 0 0 6.75,1052.3613 l 2.5,0 a 0.50005,0.50005 0 0 0 0.4960938,-0.4433 l 0.1777343,-1.5703 c 0.3265299,-0.1056 0.6421059,-0.2357 0.9472659,-0.3926 l 1.236328,0.9844 a 0.50005,0.50005 0 0 0 0.666016,-0.037 l 1.767578,-1.7675 a 0.50005,0.50005 0 0 0 0.03711,-0.666 l -0.986328,-1.2364 c 0.156407,-0.3049 0.287469,-0.6211 0.392578,-0.9472 l 1.572266,-0.1758 A 0.50005,0.50005 0 0 0 16,1045.6113 l 0,-2.498 a 0.50005,0.50005 0 0 0 -0.443359,-0.4981 l -1.570313,-0.1757 c -0.105475,-0.3264 -0.237693,-0.6423 -0.394531,-0.9473 l 0.986328,-1.2383 a 0.50005,0.50005 0 0 0 -0.03711,-0.6641 l -1.769532,-1.7675 a 0.50005,0.50005 0 0 0 -0.664062,-0.037 l -1.236328,0.9843 c -0.305189,-0.1566 -0.620765,-0.2873 -0.9472659,-0.3925 l -0.1777343,-1.5704 A 0.50005,0.50005 0 0 0 9.25,1036.3613 l -2.5,0 z m 0.4453125,1 1.6074219,0 0.1601562,1.416 a 0.50005,0.50005 0 0 0 0.3710938,0.4278 c 0.480004,0.1245 0.9398976,0.3147 1.3671876,0.5664 a 0.50005,0.50005 0 0 0 0.566406,-0.039 l 1.113281,-0.8867 1.136719,1.1348 -0.886719,1.1152 a 0.50005,0.50005 0 0 0 -0.04101,0.5645 c 0.252191,0.4272 0.443392,0.889 0.568359,1.3691 a 0.50005,0.50005 0 0 0 0.427735,0.3691 L 15,1043.5586 l 0,1.6074 -1.414062,0.1602 a 0.50005,0.50005 0 0 0 -0.429688,0.3711 c -0.124494,0.4799 -0.314772,0.9399 -0.566406,1.3672 a 0.50005,0.50005 0 0 0 0.04101,0.5644 l 0.886719,1.1152 -1.136719,1.1348 -1.113281,-0.8867 a 0.50005,0.50005 0 0 0 -0.566406,-0.039 c -0.427215,0.2521 -0.887112,0.4435 -1.3671876,0.5684 a 0.50005,0.50005 0 0 0 -0.3710938,0.4277 l -0.1601562,1.4121 -1.6054688,0 -0.1601562,-1.414 a 0.50005,0.50005 0 0 0 -0.3710938,-0.4278 c -0.480004,-0.1245 -0.9398975,-0.3147 -1.3671875,-0.5664 a 0.50005,0.50005 0 0 0 -0.5664062,0.039 l -1.1132813,0.8867 -1.1367187,-1.1348 0.8867187,-1.1152 a 0.50005,0.50005 0 0 0 0.041016,-0.5644 c -0.2521434,-0.4272 -0.4434049,-0.8872 -0.5683593,-1.3672 a 0.50005,0.50005 0 0 0 -0.4277344,-0.3711 L 1,1045.166 l 0,-1.6074 1.4140625,-0.1602 a 0.50005,0.50005 0 0 0 0.4277344,-0.3711 c 0.1244781,-0.48 0.3167092,-0.9398 0.5683593,-1.3671 a 0.50005,0.50005 0 0 0 -0.041016,-0.5645 l -0.8867187,-1.1152 1.1367187,-1.1348 1.1132813,0.8867 a 0.50005,0.50005 0 0 0 0.5664062,0.039 c 0.4272052,-0.2522 0.8871023,-0.4434 1.3671875,-0.5684 a 0.50005,0.50005 0 0 0 0.3710938,-0.4277 l 0.1582031,-1.4141 z" color="#000" font-family="sans-serif" font-weight="400" overflow="visible"/><path fill="#249fe6" style="line-height:normal;text-indent:0;text-align:start;text-decoration-line:none;text-decoration-style:solid;text-decoration-color:#000;text-transform:none;block-progression:tb;isolation:auto;mix-blend-mode:normal" d="m 8,1040.3613 c -2.2032162,0 -4.0000027,1.7968 -4,4 -2.7e-6,2.2032 1.7967838,4 4,4 2.203216,0 4.000003,-1.7968 4,-4 3e-6,-2.2032 -1.796784,-4 -4,-4 z m 0,1 c 1.6627758,0 3.000002,1.3373 3,3 2e-6,1.6628 -1.3372242,3 -3,3 -1.6627757,0 -3.000002,-1.3372 -3,-3 -2e-6,-1.6627 1.3372243,-3 3,-3 z" color="#000" font-family="sans-serif" font-weight="400" overflow="visible"/></g></svg>