<svg xmlns="http://www.w3.org/2000/svg" width="40" height="38">
    <path fill="#7da5e3" fill-rule="evenodd" d="M19.766 23.679c6.288 0 11.404-5.14 11.404-11.458C31.17 5.904 26.054.765 19.766.765 13.477.765 8.36 5.904 8.36 12.221c0 6.318 5.117 11.458 11.406 11.458zm0-19.525c4.42 0 8.016 3.619 8.016 8.067 0 4.449-3.596 8.069-8.016 8.069-4.421 0-8.017-3.62-8.017-8.069 0-4.448 3.596-8.067 8.017-8.067zm5.28 20.645a1.696 1.696 0 0 0-1.614.324l-3.666 3.118-3.668-3.118a1.694 1.694 0 0 0-1.613-.324c-2.372.757-14.204 4.829-14.204 10.7 0 .936.758 1.695 1.694 1.695h35.581c.935 0 1.694-.759 1.694-1.695 0-5.871-11.832-9.943-14.204-10.7zM4.558 33.805c1.869-1.978 6.338-4.18 10.073-5.482l4.037 3.434a1.694 1.694 0 0 0 2.195 0l4.037-3.434c3.734 1.302 8.204 3.504 10.072 5.482H4.558z"/>
</svg>
