<svg xmlns="http://www.w3.org/2000/svg" width="27" height="27">
    <path fill="#176AE6" fill-rule="evenodd" d="M23.045 22.955a13.134 13.134 0 0 1-9.348 3.872 13.138 13.138 0 0 1-9.35-3.872 13.136 13.136 0 0 1-3.872-9.349c0-3.532 1.375-6.852 3.872-9.349a13.135 13.135 0 0 1 9.35-3.873c3.531 0 6.851 1.375 9.349 3.873a13.138 13.138 0 0 1 3.872 9.349c0 3.532-1.376 6.851-3.873 9.349zM21.293 8.052a.825.825 0 0 0-1.168.023L10.43 18.157l-3.953-4.672a.826.826 0 1 0-1.261 1.068l4.544 5.371a.8.8 0 0 0 .605.293h.026a.83.83 0 0 0 .596-.254L21.316 9.22a.825.825 0 0 0-.023-1.168z"/>
</svg>
